<svg width="19" height="18" viewBox="0 0 19 18" fill="none" xmlns="http://www.w3.org/2000/svg">
<path d="M11.2919 10.1823C11.3691 10.361 11.3842 10.5638 11.3433 10.7939C11.2919 11.0664 11.1723 11.2784 10.9861 11.4479C10.7968 11.613 10.5894 11.7053 10.3623 11.7265C10.1337 11.7477 9.85368 11.7265 9.52366 11.6675L8.95747 11.5585C8.76823 11.5267 8.6562 11.4903 8.61382 11.4646C8.57597 11.4373 8.55175 11.3965 8.54266 11.3405C8.53812 11.3026 8.55629 11.1542 8.59414 10.9211L8.90751 9.24222L9.91424 9.42843C10.3563 9.51169 10.6742 9.61009 10.874 9.7312C11.0739 9.84929 11.2131 10.0022 11.2919 10.1823ZM11.3449 6.64138C11.1662 6.54752 10.8271 6.44912 10.3275 6.35677L9.47673 6.19781L9.12248 8.09016L9.97479 8.25063C10.4184 8.33238 10.7575 8.35357 10.9845 8.31876C11.2116 8.28848 11.3903 8.20522 11.528 8.07502C11.6613 7.94786 11.7491 7.78436 11.7854 7.58453C11.8247 7.38015 11.8066 7.19697 11.7294 7.03499C11.6567 6.873 11.5295 6.74584 11.3449 6.64138ZM18.89 9C18.89 13.9701 14.8601 18 9.8885 18C4.91844 18 0.890015 13.9701 0.890015 9C0.890015 4.02843 4.91844 4.26545e-07 9.8885 4.26545e-07C14.8601 -0.00151345 18.89 4.02691 18.89 9ZM13.593 6.6217C13.4385 6.28865 13.1827 6.01009 12.83 5.77544C12.6937 5.68158 12.5226 5.60589 12.3349 5.53171L12.5923 4.16468L11.2782 3.91943L11.039 5.19866L10.1928 5.0397L10.4335 3.7635L9.11794 3.51522L8.87723 4.79748L6.86983 4.41598L6.67 5.48932L6.97731 5.55139C7.18169 5.58318 7.31794 5.63162 7.38152 5.68461C7.44813 5.73154 7.48749 5.79058 7.50566 5.86022C7.52382 5.92986 7.51171 6.08125 7.46933 6.30833L6.6594 10.6395C6.61853 10.8636 6.57614 11.0059 6.53375 11.0649C6.49136 11.124 6.43232 11.1648 6.35208 11.186C6.27185 11.2133 6.13257 11.2012 5.92971 11.1618L5.62088 11.1058L5.42105 12.1791L7.42542 12.5546L7.18926 13.8353L8.5033 14.0806L8.74098 12.8029L9.48884 12.9421C9.52214 12.9482 9.55242 12.9482 9.58572 12.9573L9.34805 14.238L10.6606 14.4833L10.9225 13.0966C11.148 13.0935 11.3524 13.0754 11.5326 13.0436C12.0185 12.9497 12.4212 12.7484 12.7346 12.4441C13.0464 12.1489 13.2433 11.7931 13.3205 11.3798C13.3856 11.0331 13.3613 10.7061 13.2508 10.3988C13.1403 10.0855 12.9586 9.82809 12.7104 9.61766C12.5393 9.4693 12.2789 9.3164 11.9337 9.15593C12.2925 9.10294 12.5938 9.00757 12.833 8.87132C13.0722 8.73507 13.2705 8.55795 13.4219 8.35055C13.5748 8.13558 13.6762 7.90244 13.7232 7.64811C13.7867 7.30143 13.7474 6.95475 13.593 6.6217Z" fill="#7D4399"/>
</svg>
