<svg width="62" height="62" viewBox="0 0 62 62" fill="none" xmlns="http://www.w3.org/2000/svg">
<path d="M58.125 41.6567H48.4123C47.5269 40.4875 46.1377 39.7192 44.5625 39.7192C42.9873 39.7192 41.5972 40.4875 40.7127 41.6567H34.658C32.2594 37.5919 28.1141 34.8048 23.4215 34.179L22.2812 34.0269V31.9692H25.1875C27.8583 31.9692 30.0312 29.7963 30.0312 27.1255V24.8179L30.2405 24.7143C31.3061 24.1795 31.9688 23.1091 31.9688 21.9165C31.9688 21.3304 31.7973 20.7618 31.4718 20.2735L30.0312 18.1132V16.4692C30.0312 15.7795 29.8375 15.1227 29.5004 14.5395C30.4294 13.5097 31 12.1506 31 10.6567C31 7.45114 28.3931 4.84424 25.1875 4.84424H21.9587C18.941 4.84424 16.1345 5.73936 13.7688 7.26418C12.8602 6.9193 11.9098 6.73427 10.9294 6.73427C6.50516 6.7333 2.90625 10.3322 2.90625 14.7555V22.7031C2.90625 23.4704 2.6815 24.2154 2.25525 24.8538L1.94234 25.3236C1.30588 26.2778 0.96875 27.389 0.96875 28.5389C0.96875 30.3534 1.83578 32.0865 3.28697 33.1744L4.06875 33.7614C4.55409 34.1257 4.84375 34.705 4.84375 35.3114C4.84375 35.9179 4.55409 36.4972 4.07069 36.8605L2.85878 37.7691C1.67497 38.6565 0.96875 40.0699 0.96875 41.6093C0.96875 43.0701 1.64591 44.4622 2.77934 45.3758C2.23588 47.0604 1.9375 48.8507 1.9375 50.7068V61.0317H36.2981H36.8125H52.8269C55.2217 61.0317 57.2832 59.2434 57.6222 56.8729L58.9862 47.3239C60.1662 46.9548 61.0312 45.864 61.0312 44.563C61.0312 42.9607 59.7273 41.6567 58.125 41.6567ZM49.0536 46.3542L53.0875 51.7327C53.2454 51.9429 53.3084 52.1909 53.2716 52.4496C53.2338 52.7102 53.103 52.9301 52.8947 53.087C52.4762 53.399 51.8465 53.3079 51.5365 52.8923L47.9057 48.0515C48.4017 47.5777 48.795 47.0013 49.0536 46.3542ZM44.5625 41.6567C46.1648 41.6567 47.4688 42.9607 47.4688 44.563C47.4688 46.1653 46.1648 47.4692 44.5625 47.4692C42.9602 47.4692 41.6562 46.1653 41.6562 44.563C41.6562 42.9607 42.9602 41.6567 44.5625 41.6567ZM31 45.5317C30.4662 45.5317 30.0312 45.0977 30.0312 44.563C30.0312 44.0282 30.4662 43.5942 31 43.5942H39.7197L38.2666 45.5317H31ZM40.0714 46.3532C40.33 47.0004 40.7233 47.5768 41.2184 48.0515L37.5875 52.8942C37.2785 53.3069 36.6439 53.399 36.2322 53.089C36.022 52.931 35.8902 52.7102 35.8534 52.4506C35.8166 52.1909 35.8796 51.9439 36.0375 51.7327L40.0714 46.3532ZM32.3737 41.6567H31C29.3977 41.6567 28.0938 42.9607 28.0938 44.563C28.0938 45.864 28.9588 46.9548 30.1397 47.3239L31.5037 56.8729C31.6229 57.7051 31.9629 58.4578 32.4463 59.0942H19.375V51.6358C22.5079 47.1525 24.4367 41.9222 24.954 36.4749C27.9407 37.2993 30.5718 39.1302 32.3737 41.6567ZM7.75 44.563V51.3442H3.875V50.7068C3.875 44.9253 7.05444 39.8229 11.9515 37.2257C12.5686 42.4066 14.4441 47.3724 17.4375 51.6513V59.0942H9.6875V44.563H7.75ZM18.4062 49.5956C16.8204 47.1341 15.6066 44.4593 14.8054 41.6567H22.0071C21.2059 44.4593 19.9921 47.135 18.4062 49.5956ZM30.0312 21.9165C30.0312 22.3699 29.7794 22.7777 29.3735 22.9812L28.0938 23.6206V27.1255C28.0938 28.7278 26.7898 30.0317 25.1875 30.0317H20.3438V35.7241L23.0475 36.0835L23.0388 36.1746C22.9303 37.37 22.7404 38.5519 22.4895 39.7183H14.321C14.0866 38.6275 13.9113 37.5221 13.8008 36.4061C14.4218 36.1756 15.0563 35.9702 15.717 35.8181L16.4688 35.6466V26.6411L13.4986 24.413C12.9318 23.9887 12.5938 23.3115 12.5938 22.6043C12.5938 21.3585 13.608 20.3442 14.8538 20.3442H16.4688V16.4692C16.4688 15.4007 17.3377 14.5317 18.4062 14.5317H18.9487C19.6211 15.6846 20.8543 16.4692 22.2783 16.4692H25.1875C26.1902 16.4692 27.1347 16.2135 27.9581 15.765C28.0453 15.9868 28.0938 16.2241 28.0938 16.4692V18.7003L29.8598 21.3479C29.9712 21.5164 30.0312 21.7131 30.0312 21.9165ZM25.1875 6.78174C27.3246 6.78174 29.0625 8.51968 29.0625 10.6567C29.0625 12.7938 27.3246 14.5317 25.1875 14.5317H22.2783C21.2118 14.5317 20.3438 13.657 20.3438 12.5071C20.3438 11.486 21.174 10.6567 22.195 10.6567H22.2812L22.195 8.71924C20.1054 8.71924 18.4062 10.4184 18.4062 12.5797C18.4062 12.5846 18.4072 12.5894 18.4072 12.5942H18.4062C16.2692 12.5942 14.5312 14.3322 14.5312 16.4692V18.4193C12.3671 18.585 10.6562 20.3985 10.6562 22.6043C10.6562 23.918 11.284 25.1735 12.3351 25.963L14.5312 27.6099V31.0005L14.0149 30.613C10.6979 28.1252 8.71875 24.166 8.71875 20.0216C8.71875 12.7211 14.6582 6.78174 21.9587 6.78174H25.1875ZM2.90625 41.5502C2.90625 40.6773 3.32378 39.8423 4.02031 39.3191L5.23222 38.4105C6.20194 37.682 6.78125 36.5233 6.78125 35.3114C6.78125 34.0976 6.20194 32.939 5.23125 32.2114L4.44947 31.6253C3.48362 30.8997 2.90625 29.7469 2.90625 28.5389C2.90625 27.7736 3.13003 27.0335 3.55434 26.398L3.86725 25.9291C4.50566 24.97 4.84375 23.855 4.84375 22.7041V14.7565C4.84375 11.4007 7.57369 8.67177 10.9285 8.67177C11.2346 8.67177 11.5359 8.70277 11.8342 8.74733C8.74103 11.5267 6.78125 15.5451 6.78125 20.0216C6.78125 24.7724 9.05103 29.312 12.8524 32.163L14.5312 33.4224V34.1228C9.55575 35.5023 5.62263 38.9578 3.5495 43.4199C3.14166 42.9064 2.90625 42.2564 2.90625 41.5502ZM3.875 53.2817H7.75V59.0942H3.875V53.2817ZM55.7041 56.5987C55.5229 57.8688 54.5164 58.854 53.2812 59.0526V57.1567H51.3438V59.0942H49.4062V55.2192H47.4688V59.0942H45.5312V51.3442H43.5938V59.0942H41.6562V55.2192H39.7188V59.0942H37.7812V57.1567H35.8438V59.0526C34.6086 58.854 33.6021 57.8688 33.4209 56.5987L32.117 47.4692H36.8135L34.4885 50.5692C34.0215 51.1902 33.8249 51.9555 33.9353 52.7247C34.0448 53.4929 34.4478 54.172 35.0697 54.6399C35.5773 55.0187 36.1789 55.2192 36.8115 55.2192C37.7231 55.2192 38.5931 54.7843 39.1385 54.0548L42.8662 49.0841C43.3961 49.2837 43.9638 49.4067 44.5625 49.4067C45.1612 49.4067 45.7289 49.2837 46.2588 49.0841L49.9856 54.0538C50.5319 54.7843 51.4019 55.2192 52.3135 55.2192C52.9451 55.2192 53.5477 55.0187 54.0562 54.638C54.6772 54.172 55.0793 53.492 55.1887 52.7237C55.2992 51.9546 55.1025 51.1892 54.6365 50.5692L52.3106 47.4692H57.008L55.7041 56.5987ZM58.125 45.5317H50.8574L49.4043 43.5942H58.125C58.6588 43.5942 59.0938 44.0282 59.0938 44.563C59.0938 45.0977 58.6588 45.5317 58.125 45.5317ZM50.375 11.4841V12.5942H48.4375V11.4841C48.4375 11.0287 48.0665 10.6567 47.6102 10.6567H47.3273C46.871 10.6567 46.5 11.0287 46.5 11.4841C46.5 11.7989 46.6753 12.0827 46.9582 12.2242L48.8473 13.1687C49.7899 13.6405 50.375 14.5889 50.375 15.6419C50.375 16.8771 49.5564 17.9127 48.4375 18.2663V20.3442H46.5V18.2663C45.3811 17.9117 44.5625 16.8761 44.5625 15.6419V14.5317H46.5V15.6419C46.5 16.0972 46.871 16.4692 47.3273 16.4692H47.6102C48.0665 16.4692 48.4375 16.0972 48.4375 15.6419C48.4375 15.3271 48.2622 15.0432 47.9793 14.9018L46.0902 13.9573C45.1476 13.4855 44.5625 12.5371 44.5625 11.4841C44.5625 10.2489 45.3811 9.2133 46.5 8.85971V6.78174H48.4375V8.85971C49.5564 9.21427 50.375 10.2499 50.375 11.4841ZM54.5552 0.969238H40.3823C36.8115 0.969238 33.9062 3.87452 33.9062 7.4463C33.9062 7.68364 33.9198 7.92293 33.946 8.16027L35.3051 20.3956C35.6703 23.6796 38.4371 26.1567 41.7415 26.1567H43.5938V27.6932C43.5938 28.9826 44.6429 30.0317 45.9323 30.0317C46.5475 30.0317 47.15 29.7818 47.586 29.3468L50.7761 26.1567H53.196C56.5004 26.1567 59.2681 23.6796 59.6324 20.3956L60.9925 8.1593C61.0177 7.92293 61.0312 7.68364 61.0312 7.4463C61.0312 3.87452 58.126 0.969238 54.5552 0.969238ZM59.0666 7.94618L57.7075 20.1815C57.4507 22.4832 55.5113 24.2192 53.196 24.2192H49.9739L46.2171 27.9761C45.9827 28.2115 45.5312 28.0206 45.5312 27.6932V24.2192H41.7415C39.4252 24.2192 37.4858 22.4832 37.23 20.1815L35.8718 7.94714C35.8534 7.78052 35.8438 7.61293 35.8438 7.4463C35.8438 4.94305 37.8801 2.90674 40.3823 2.90674H54.5552C57.0574 2.90674 59.0938 4.94305 59.0938 7.4463C59.0938 7.61293 59.0841 7.78052 59.0666 7.94618ZM45.5312 34.8755C45.5312 33.2732 44.2273 31.9692 42.625 31.9692C41.0227 31.9692 39.7188 33.2732 39.7188 34.8755C39.7188 36.4778 41.0227 37.7817 42.625 37.7817C44.2273 37.7817 45.5312 36.4778 45.5312 34.8755ZM41.6562 34.8755C41.6562 34.3407 42.0912 33.9067 42.625 33.9067C43.1588 33.9067 43.5938 34.3407 43.5938 34.8755C43.5938 35.4102 43.1588 35.8442 42.625 35.8442C42.0912 35.8442 41.6562 35.4102 41.6562 34.8755ZM50.375 37.7817C51.9773 37.7817 53.2812 36.4778 53.2812 34.8755C53.2812 33.2732 51.9773 31.9692 50.375 31.9692C48.7727 31.9692 47.4688 33.2732 47.4688 34.8755C47.4688 36.4778 48.7727 37.7817 50.375 37.7817ZM50.375 33.9067C50.9088 33.9067 51.3438 34.3407 51.3438 34.8755C51.3438 35.4102 50.9088 35.8442 50.375 35.8442C49.8412 35.8442 49.4062 35.4102 49.4062 34.8755C49.4062 34.3407 49.8412 33.9067 50.375 33.9067ZM58.125 31.9692C56.5227 31.9692 55.2188 33.2732 55.2188 34.8755C55.2188 36.4778 56.5227 37.7817 58.125 37.7817C59.7273 37.7817 61.0312 36.4778 61.0312 34.8755C61.0312 33.2732 59.7273 31.9692 58.125 31.9692ZM58.125 35.8442C57.5912 35.8442 57.1562 35.4102 57.1562 34.8755C57.1562 34.3407 57.5912 33.9067 58.125 33.9067C58.6588 33.9067 59.0938 34.3407 59.0938 34.8755C59.0938 35.4102 58.6588 35.8442 58.125 35.8442Z" fill="url(#paint0_linear)"/>
<defs>
<linearGradient id="paint0_linear" x1="58" y1="61.0005" x2="-7" y2="-12.9995" gradientUnits="userSpaceOnUse">
<stop offset="0.111818" stop-color="#7D4399"/>
<stop offset="1" stop-color="#FFBF00"/>
</linearGradient>
</defs>
</svg>
