<svg id="Layer_1" data-name="Layer 1" xmlns="http://www.w3.org/2000/svg" viewBox="0 0 110.32 46"><defs><style>.cls-1{fill:#fff;}.cls-2{fill:#ffbe1d;}.cls-3{fill:#454545;}.cls-4{fill:#a9ce00;}.cls-5{fill:#fefcd8;}.cls-6{fill:#ba7fdd;}.cls-7{fill:#504f44;}.cls-8{fill:#adab93;}.cls-9{fill:#57564a;}.cls-10{fill:#717060;}.cls-11{fill:#bbb9a0;}</style></defs><title>logo-light</title><path class="cls-1" d="M23,35.67A12.67,12.67,0,1,1,35,18.85H45.63a23,23,0,1,0,0,8.3H35A12.66,12.66,0,0,1,23,35.67Z"/><path class="cls-2" d="M45.63,21.62v2.76H31.56a8.67,8.67,0,1,1,0-2.76Z"/><path class="cls-1" d="M61,11.33a4.35,4.35,0,0,1,1.32,3.18h-3a2.18,2.18,0,0,0-.78-1.28A2.52,2.52,0,0,0,57,12.77a3,3,0,0,0-2.15.91,4.38,4.38,0,0,0-1.2,2.43,6.1,6.1,0,0,0-.08.85,2.62,2.62,0,0,0,.61,1.82,2.16,2.16,0,0,0,1.66.67A3.23,3.23,0,0,0,57.53,19a3.48,3.48,0,0,0,1.24-1.26h3a6.9,6.9,0,0,1-2.46,3.17,6.57,6.57,0,0,1-3.89,1.19,5.3,5.3,0,0,1-2.57-.58,3.91,3.91,0,0,1-1.64-1.63,5.17,5.17,0,0,1-.56-2.44,7.89,7.89,0,0,1,.11-1.31A7.66,7.66,0,0,1,52,13a6.52,6.52,0,0,1,5.49-2.86A4.92,4.92,0,0,1,61,11.33Z"/><path class="cls-1" d="M68.58,13.13a4,4,0,0,1,1.89-.49l-.53,3h-.82a3.19,3.19,0,0,0-1.83.48,2.28,2.28,0,0,0-.89,1.62L65.66,22H62.81l1.62-9.24h2.85L67,14.48A5.29,5.29,0,0,1,68.58,13.13Z"/><path class="cls-1" d="M74.48,12.74,72.84,22H70l1.63-9.24Zm-2.1-3.59a2,2,0,0,1,1.41-.5,1.53,1.53,0,0,1,1,.34,1.1,1.1,0,0,1,.39.88,1.62,1.62,0,0,1-.56,1.24,2,2,0,0,1-1.4.5,1.56,1.56,0,0,1-1.07-.34,1.08,1.08,0,0,1-.39-.87A1.62,1.62,0,0,1,72.38,9.15Z"/><path class="cls-1" d="M84.58,13.56a3.69,3.69,0,0,1,.88,2.62,7.14,7.14,0,0,1-.1,1.18,6.59,6.59,0,0,1-1,2.51,5,5,0,0,1-1.71,1.65,4.32,4.32,0,0,1-2.14.57,3,3,0,0,1-1.75-.48,2.23,2.23,0,0,1-.87-1.31l-1.07,6.08H74l2.42-13.64h2.83L79,14.41A3.69,3.69,0,0,1,80.3,13.1a3.8,3.8,0,0,1,1.92-.48A3.13,3.13,0,0,1,84.58,13.56Zm-3,5.46a2.86,2.86,0,0,0,.86-1.66,3.74,3.74,0,0,0,0-.54,1.65,1.65,0,0,0-.46-1.26,1.63,1.63,0,0,0-1.21-.45,2.25,2.25,0,0,0-1.57.61,2.76,2.76,0,0,0-.87,1.64,3.27,3.27,0,0,0,0,.53,1.72,1.72,0,0,0,.46,1.27,1.65,1.65,0,0,0,1.21.45A2.31,2.31,0,0,0,81.62,19Z"/><path class="cls-1" d="M89.8,18.57a2.74,2.74,0,0,0,0,.31.63.63,0,0,0,.19.51,1,1,0,0,0,.65.15h.89L91.07,22H89.78a3.43,3.43,0,0,1-2.14-.58,2.22,2.22,0,0,1-.76-1.9,5,5,0,0,1,.09-1l.59-3.4H86.33l.43-2.38H88l.4-2.27h2.84l-.39,2.27h1.83l-.41,2.38H90.4Z"/><path d="M97.44,22.52a1.24,1.24,0,0,0-.33,0,4.33,4.33,0,0,1-3.26-1.84,4,4,0,0,1,1-5.45c.53-.41,1.09-.76,1.65-1.12A1.06,1.06,0,0,0,97,13a2.63,2.63,0,0,0-.35-1.1s-.06-.07,0-.11.08-.09.16,0l.71.47c.08,0,.16.05.19.14s-.08,0-.11,0L97,12.14c0,.12.1.21.14.3a2,2,0,0,1,.2.79,1.22,1.22,0,0,1-.32.88,3.61,3.61,0,0,1-.92.73,9.16,9.16,0,0,0-1.23.92,3.94,3.94,0,0,0-.63.66,2.89,2.89,0,0,0-.58,1.49,4.38,4.38,0,0,0,0,.5,3.34,3.34,0,0,0,.69,2.13,4,4,0,0,0,1.8,1.37l.12,0a.43.43,0,0,0,.12.05h0a1.67,1.67,0,0,1-.55-.39,6,6,0,0,1-1-1.38,4.11,4.11,0,0,1-.44-1.29,1.11,1.11,0,0,1,0-.57,3.31,3.31,0,0,1,1.06-1.7,7.81,7.81,0,0,1,1.25-.88,1.32,1.32,0,0,0,.54-.65c.1-.24.17-.5.26-.74,0,0,0-.11.06-.1s0,.08,0,.12a4.37,4.37,0,0,1-.23.86,1.31,1.31,0,0,1-.51.63c-.37.24-.74.49-1.09.76a3.31,3.31,0,0,0-1.18,1.77,1,1,0,0,0,0,.45,4.17,4.17,0,0,0,.61,1.59A7.32,7.32,0,0,0,96,21.61a1.38,1.38,0,0,0,.5.32c.24.11.49.15.74.24a1.21,1.21,0,0,1,.14,0l-.13,0a2.7,2.7,0,0,1-1.66-1.39,2.5,2.5,0,0,1-.24-1.52,1.94,1.94,0,0,1,.5-1,3,3,0,0,1,.86-.65,1.64,1.64,0,0,0,.73-.85.93.93,0,0,1,.12-.27.05.05,0,0,1,0,0v.07a1.71,1.71,0,0,1-.62,1c-.14.1-.28.17-.42.27a2.89,2.89,0,0,0-.88,1,1.55,1.55,0,0,0-.06,1.33,3.88,3.88,0,0,0,.82,1.29,2.06,2.06,0,0,0,1,.54l.28.07a1.44,1.44,0,0,1-.57-.72L97,21a2.11,2.11,0,0,1,0-1.14,1.72,1.72,0,0,1,.49-.94,1.52,1.52,0,0,0,.29-.41s0-.07.06,0a.76.76,0,0,1-.16.43c-.1.17-.23.33-.33.5a1.73,1.73,0,0,0-.14,1.42,3,3,0,0,0,.39.81.87.87,0,0,0,.21.22.17.17,0,0,0,0-.12v-3a.87.87,0,0,1,0-.23.09.09,0,0,0,0-.1c0-.1,0-.18,0-.27V12.66a.41.41,0,0,1,0-.19s.07,0,.07,0a.38.38,0,0,1,0,.15v9a.57.57,0,0,0,0,.13.7.7,0,0,0,.09-.24,5.6,5.6,0,0,0,.17-1.22,6.44,6.44,0,0,0-.2-1.75l0-.22a.13.13,0,0,1,0-.12c.05,0,.05.06.06.09.06.25.14.49.22.73a4.6,4.6,0,0,1,.18,1.1,5.48,5.48,0,0,1,0,.7,3.47,3.47,0,0,1-.06.45A1.27,1.27,0,0,1,98,22a2,2,0,0,0,.6-1.19,8.15,8.15,0,0,0,.14-1.21,4.18,4.18,0,0,0-.17-1.22,2.31,2.31,0,0,0-.36-.76,1.46,1.46,0,0,1-.25-.88c0-.13,0-.27,0-.4a.16.16,0,0,1,0-.13s0,.07,0,.1c0,.19,0,.38.06.57a1,1,0,0,0,.15.44A4.78,4.78,0,0,1,98.86,19a3.8,3.8,0,0,1,0,1A6.38,6.38,0,0,1,98.72,21a2.34,2.34,0,0,1-.24.62c0,.05-.07.08-.08.14s0-.08.07-.13a4.25,4.25,0,0,0,.44-1.3c.06-.36.13-.73.17-1.1a3.89,3.89,0,0,0,0-1.13,5.74,5.74,0,0,0-.4-1.4,7.54,7.54,0,0,0-.38-.75A2.34,2.34,0,0,1,98,14.94a3.51,3.51,0,0,1,0-.56s0-.05,0-.05a.59.59,0,0,1,.05.22c0,.23.07.45.1.68a1.67,1.67,0,0,0,.23.53,13.25,13.25,0,0,1,.6,1.19,4,4,0,0,1,.31,1.19c0,.24,0,.49.06.73a5.66,5.66,0,0,1-.24,1.69,5.94,5.94,0,0,1-.21.72.24.24,0,0,1-.06.11,2.4,2.4,0,0,0,.42-1.16A10.42,10.42,0,0,0,99.38,19a11.53,11.53,0,0,0,0-1.44,7.18,7.18,0,0,0-.24-1.46,4.34,4.34,0,0,0-.4-.91c-.17-.29-.37-.57-.51-.87a2.14,2.14,0,0,1-.18-1s0,0,0-.06,0-.07,0-.07,0,0,0,.08a3.41,3.41,0,0,0,.27,1,1.48,1.48,0,0,0,.16.27,8.7,8.7,0,0,1,.5.83,3.76,3.76,0,0,1,.35.88,10.56,10.56,0,0,1,.29,1.38c0,.22,0,.44.05.66a7.12,7.12,0,0,1,0,.8,6.43,6.43,0,0,1-.43,2.21,2.6,2.6,0,0,1-.46.72,1.39,1.39,0,0,1-.3.29,5.8,5.8,0,0,0,2.07-.8,3.28,3.28,0,0,0,1.1-1.21,3.54,3.54,0,0,0,.44-1.39,3.75,3.75,0,0,0-.41-2.1,3.24,3.24,0,0,0-.65-.9,6.18,6.18,0,0,0-.9-.72c-.3-.21-.61-.4-.91-.59a1.89,1.89,0,0,1-.93-1.33.86.86,0,0,1,0-.32.12.12,0,0,0-.08-.15l-.24-.12s-.14,0-.17-.12a.45.45,0,0,1,.32,0l.58.09a1.54,1.54,0,0,0,.84,1.71,10.76,10.76,0,0,1,1.4.9A4,4,0,0,1,102.59,18a3.85,3.85,0,0,1-1.87,3.89,4.39,4.39,0,0,1-1.69.6,4.48,4.48,0,0,1-.63.06c-.1,0-.2,0-.3,0H98a1.62,1.62,0,0,0-.44,0Z"/><path class="cls-3" d="M97.55,22.52s.08,0,.12,0a1.13,1.13,0,0,1,.32,0Z"/><path class="cls-3" d="M98.09,22.52a.8.8,0,0,1,.31,0v0Z"/><path class="cls-4" d="M97.83,21.89h0s0,0,0,0V12.55s0-.08,0-.1,0,0-.05,0-.15-.1-.2-.16a8,8,0,0,1,.71-2.38,6.42,6.42,0,0,1,.37-.68l-.36,1.41a7.5,7.5,0,0,1,2.33-2.49,12.72,12.72,0,0,0-1.68,2.39,5,5,0,0,1,2.55-1.73l-.32.29a18.2,18.2,0,0,0-2.83,3.36.41.41,0,0,0,0,.09c-.11,0-.22,0-.33,0a.1.1,0,0,0-.06.1v8.79A2.77,2.77,0,0,1,97.83,21.89Z"/><path class="cls-5" d="M97.71,12.42l.05,0v5.73a1,1,0,0,1,0,.24h0a2.86,2.86,0,0,1-.48.66,1.63,1.63,0,0,0-.35.87,2.4,2.4,0,0,0,.4,1.73,1.17,1.17,0,0,0,.45.43,2.11,2.11,0,0,1-.45-.1,2,2,0,0,1-1.06-.71,3.23,3.23,0,0,1-.77-1.61,1.32,1.32,0,0,1,.17-.82,2.74,2.74,0,0,1,1-1.09,2.86,2.86,0,0,0,.4-.28,1.66,1.66,0,0,0,.54-1s0-.05,0-.08a.07.07,0,0,0,0-.06s0,0,0,0h0a.26.26,0,0,1,0,.12l-.14.35a1.64,1.64,0,0,1-.75.81,2.78,2.78,0,0,0-1,.79,2,2,0,0,0-.33,1.67,2.67,2.67,0,0,0,1.65,2l.21.08s0,0,0,0a5.09,5.09,0,0,1-.84-.26,1.26,1.26,0,0,1-.36-.24,6.29,6.29,0,0,1-1.36-2.09,2.88,2.88,0,0,1-.19-.82,1.8,1.8,0,0,1,.23-.9,3.37,3.37,0,0,1,1.14-1.34l1-.67a1.19,1.19,0,0,0,.47-.59,4.79,4.79,0,0,0,.24-.92.09.09,0,0,0,0,0l-.18.58a1.46,1.46,0,0,0-.07.19,1.37,1.37,0,0,1-.67.79,6.37,6.37,0,0,0-1.38,1,3.19,3.19,0,0,0-.86,1.58,1.48,1.48,0,0,0,0,.75,5.31,5.31,0,0,0,1,1.94,2.37,2.37,0,0,0,.94.84s0,0,0,0a3.88,3.88,0,0,1-2.65-2.69,3.53,3.53,0,0,1-.07-1.41,3,3,0,0,1,.62-1.55,5.71,5.71,0,0,1,.9-.87,9.15,9.15,0,0,1,1.1-.78,2.88,2.88,0,0,0,.85-.74,1.22,1.22,0,0,0,.22-.79,2.41,2.41,0,0,0-.32-1l0-.08v0Z"/><path class="cls-6" d="M98.09,12.59h0a.76.76,0,0,1,.28.16c.07.07,0,.19,0,.29a1.7,1.7,0,0,0,.39,1,2.37,2.37,0,0,0,.59.5,9.75,9.75,0,0,1,1.67,1.19,3.47,3.47,0,0,1,1.08,1.9A3.61,3.61,0,0,1,101,21.22a4.28,4.28,0,0,1-1.32.74,5.94,5.94,0,0,1-1,.29h-.13a3,3,0,0,0,.4-.39,3.18,3.18,0,0,0,.63-1.37,7.79,7.79,0,0,0,.18-2.31,8.88,8.88,0,0,0-.44-2.33,4.34,4.34,0,0,0-.65-1.22,3,3,0,0,1-.53-1.49.54.54,0,0,0,0,.1.12.12,0,0,1,0-.13c0-.14,0-.28,0-.42A.11.11,0,0,1,98.09,12.59Z"/><path class="cls-5" d="M98.09,12.59c0,.22,0,.44,0,.67a2.3,2.3,0,0,0,.39,1.42,5.48,5.48,0,0,1,.57,1,5.85,5.85,0,0,1,.35,1.53,10.08,10.08,0,0,1,0,2.33,11.62,11.62,0,0,1-.2,1.18,2.14,2.14,0,0,1-.37.72s0,0,0,0a8.73,8.73,0,0,0,.43-1.55,4.91,4.91,0,0,0,.06-1.53A4.55,4.55,0,0,0,99,17.19a11.56,11.56,0,0,0-.61-1.28,2.09,2.09,0,0,1-.29-.6,7.81,7.81,0,0,1-.14-1,.77.77,0,0,1,0-.3,1.37,1.37,0,0,1,0-.29h0c0,.1,0,.21,0,.31s0,.21,0,.32a7.2,7.2,0,0,0,.12,1,1.61,1.61,0,0,0,.17.43,7.76,7.76,0,0,1,.64,1.37,4.86,4.86,0,0,1,.22,2.24c-.07.46-.15.91-.25,1.36a2.55,2.55,0,0,1-.36.87s0,0,0,0A4.77,4.77,0,0,0,98.86,20a4.17,4.17,0,0,0-.41-2.2,3,3,0,0,0-.26-.46,1.41,1.41,0,0,1-.2-.66c0-.16,0-.32,0-.48a3.15,3.15,0,0,0,0,1,1.34,1.34,0,0,0,.19.4,3.57,3.57,0,0,1,.52,2.25,5.69,5.69,0,0,1-.21,1.3A1.7,1.7,0,0,1,98,22l-.09.07h0a1.43,1.43,0,0,0,.36-.74c0-.26.05-.52.08-.78a4.43,4.43,0,0,0-.27-1.8c0-.15-.09-.31-.14-.47a1.47,1.47,0,0,0,0,.36,8.21,8.21,0,0,1,.18,1,5,5,0,0,1-.27,2.26s0-.07,0-.1V12.56s0-.05,0-.09.06,0,.1,0Z"/><path class="cls-5" d="M97.73,18.43s0,0,0,.07v3.4a.23.23,0,0,1-.14-.09,2.34,2.34,0,0,1-.56-2,2,2,0,0,1,.34-.67,1.75,1.75,0,0,0,.33-.6.17.17,0,0,0,0-.07Z"/><path class="cls-7" d="M97.93,14.05c0,.09,0,.19,0,.29l0,0a1.67,1.67,0,0,1,0-.32h0S97.92,14,97.93,14.05Z"/><path class="cls-8" d="M98.45,21.68l0,0a.53.53,0,0,1-.1.14A.24.24,0,0,1,98.45,21.68Z"/><path class="cls-9" d="M97.56,16.5a.77.77,0,0,1,0-.17.47.47,0,0,1,0,.19Z"/><path class="cls-10" d="M97.23,22.18l0,0,.13.05A.25.25,0,0,1,97.23,22.18Z"/><path class="cls-11" d="M97.93,14.05h0a.69.69,0,0,1,0-.32C97.92,13.84,97.92,13.94,97.93,14.05Z"/><path class="cls-1" d="M53.63,28.09l-.41,2.45h3.94l-.39,2.14h-4l-.45,2.6h4.46l-.4,2.27H49.14L51.2,25.84h7.29l-.4,2.25Z"/><path class="cls-1" d="M65.77,29.06a3.21,3.21,0,0,1,1.14,2.33H64.13a1.12,1.12,0,0,0-.43-.9,1.8,1.8,0,0,0-1.12-.32,1.58,1.58,0,0,0-.84.2.65.65,0,0,0,.12,1.18,7.75,7.75,0,0,0,1.36.44q1,.29,1.65.54a2.92,2.92,0,0,1,1.1.78,2,2,0,0,1,.46,1.36,3.06,3.06,0,0,1-.06.63,2.64,2.64,0,0,1-1.2,1.7,4.93,4.93,0,0,1-2.69.65,5,5,0,0,1-3-.83,2.92,2.92,0,0,1-1.2-2.36h2.78a.92.92,0,0,0,.42.91,2.17,2.17,0,0,0,1.24.32,1.39,1.39,0,0,0,.85-.23.73.73,0,0,0,.28-.59.68.68,0,0,0-.43-.62A10.75,10.75,0,0,0,62,33.78a10.7,10.7,0,0,1-1.59-.51,2.87,2.87,0,0,1-1.09-.76,1.87,1.87,0,0,1-.45-1.33,5.28,5.28,0,0,1,.06-.62,2.49,2.49,0,0,1,1.18-1.71,4.78,4.78,0,0,1,2.7-.67A4.48,4.48,0,0,1,65.77,29.06Z"/><path class="cls-1" d="M76,29.18a3.56,3.56,0,0,1,1.08,2.71h-3a1.23,1.23,0,0,0-1.36-1.26,1.83,1.83,0,0,0-1.33.59,3,3,0,0,0-.79,1.71,3.85,3.85,0,0,0-.06.69,1.66,1.66,0,0,0,.38,1.2,1.28,1.28,0,0,0,1,.41A1.83,1.83,0,0,0,73,34.9a2,2,0,0,0,.7-.93h3a5.46,5.46,0,0,1-2,2.71,5.35,5.35,0,0,1-3.17,1,3.94,3.94,0,0,1-2.85-1,3.71,3.71,0,0,1-1.07-2.81,7.44,7.44,0,0,1,.12-1.16,5.42,5.42,0,0,1,1-2.39,5,5,0,0,1,1.88-1.56,5.65,5.65,0,0,1,2.47-.54A4.12,4.12,0,0,1,76,29.18Z"/><path class="cls-1" d="M83.37,28.71a3.93,3.93,0,0,1,1.89-.5l-.53,3H83.9a3.19,3.19,0,0,0-1.83.48,2.31,2.31,0,0,0-.88,1.63l-.75,4.2H77.6l1.62-9.23h2.85l-.3,1.73A5.14,5.14,0,0,1,83.37,28.71Z"/><path class="cls-1" d="M110.32,28.31l-4,9.24h-3.16l-.58-6.21-2.8,6.21H96.61l-.71-9.24h2.81L98.76,35l2.9-6.66h3l.6,6.68,2.41-6.68Z"/><path d="M89.67,37.87a1.84,1.84,0,0,0-.33,0A4.31,4.31,0,0,1,86.08,36a3.81,3.81,0,0,1-.65-2.36,3.86,3.86,0,0,1,1.66-3.09c.52-.4,1.09-.75,1.64-1.12a1,1,0,0,0,.48-1,2.68,2.68,0,0,0-.35-1.1s-.06-.06,0-.1.08-.09.16,0l.72.48c.07,0,.16,0,.18.14s-.07,0-.11,0l-.63-.25.14.3a2.15,2.15,0,0,1,.21.79,1.27,1.27,0,0,1-.32.87,3.45,3.45,0,0,1-.93.73,9.14,9.14,0,0,0-1.22.93,3.94,3.94,0,0,0-.64.65,3,3,0,0,0-.58,1.5c0,.16,0,.33,0,.5a3.26,3.26,0,0,0,.7,2.12,3.85,3.85,0,0,0,1.79,1.37l.12.05s.07,0,.12,0,0,0,0,0h0A1.6,1.6,0,0,1,88,37a6,6,0,0,1-1-1.38,4.31,4.31,0,0,1-.45-1.29,1.26,1.26,0,0,1,0-.58A3.35,3.35,0,0,1,87.65,32a9.07,9.07,0,0,1,1.25-.88,1.3,1.3,0,0,0,.55-.65c.1-.24.16-.49.25-.73,0,0,0-.11.06-.1s0,.07,0,.11a5.17,5.17,0,0,1-.22.86,1.39,1.39,0,0,1-.51.64c-.37.24-.75.48-1.1.76a3.27,3.27,0,0,0-1.18,1.77,1.29,1.29,0,0,0,0,.44,4.24,4.24,0,0,0,.62,1.6A7.18,7.18,0,0,0,88.23,37a1.29,1.29,0,0,0,.5.33c.24.1.5.15.74.24a1.21,1.21,0,0,1,.14,0,.5.5,0,0,0-.13,0,2.78,2.78,0,0,1-1.66-1.4,2.53,2.53,0,0,1-.24-1.51,1.91,1.91,0,0,1,.5-1,3,3,0,0,1,.86-.65,1.64,1.64,0,0,0,.73-.85,1.31,1.31,0,0,1,.12-.27s0,0,0,0,0,0,0,.07a1.64,1.64,0,0,1-.62,1c-.13.1-.28.18-.42.28a2.89,2.89,0,0,0-.88,1,1.55,1.55,0,0,0-.06,1.33,4.05,4.05,0,0,0,.82,1.29,2,2,0,0,0,1,.53l.28.08a1.55,1.55,0,0,1-.57-.72l-.15-.4a2.1,2.1,0,0,1-.05-1.14,1.79,1.79,0,0,1,.49-.93,1.33,1.33,0,0,0,.29-.41s0-.07.07,0a.81.81,0,0,1-.16.43c-.11.18-.24.33-.34.51a1.69,1.69,0,0,0-.13,1.42,2.88,2.88,0,0,0,.39.81.69.69,0,0,0,.2.22.17.17,0,0,0,0-.12v-3a1,1,0,0,1,0-.24.18.18,0,0,0,0-.1,2.43,2.43,0,0,1,0-.27V28a.44.44,0,0,1,0-.2s.07,0,.08,0a.75.75,0,0,1,0,.15v9.17a.58.58,0,0,0,.09-.25,5.53,5.53,0,0,0,.18-1.21A6.87,6.87,0,0,0,90.12,34l0-.23a.09.09,0,0,1,0-.11s0,.05,0,.08c.07.25.14.5.22.74a4.52,4.52,0,0,1,.18,1.1,5.32,5.32,0,0,1,0,.69c0,.15,0,.31,0,.45a1.36,1.36,0,0,1-.29.67,2,2,0,0,0,.59-1.18A8.15,8.15,0,0,0,90.92,35a3.87,3.87,0,0,0-.17-1.22A2.51,2.51,0,0,0,90.4,33a1.54,1.54,0,0,1-.26-.88c0-.14,0-.27,0-.41a.14.14,0,0,1,0-.12s0,.06,0,.1,0,.38.06.56a1.1,1.1,0,0,0,.15.44,4.64,4.64,0,0,1,.66,1.67,3.73,3.73,0,0,1,0,1A6.31,6.31,0,0,1,91,36.4a2.7,2.7,0,0,1-.25.61c0,.06-.07.09-.08.15s.05-.09.07-.14a4,4,0,0,0,.44-1.29c.06-.37.13-.73.17-1.1a4,4,0,0,0,0-1.14,6.07,6.07,0,0,0-.78-2.14,2.21,2.21,0,0,1-.31-1.05,2.73,2.73,0,0,1,0-.57s0,0,0,0a.52.52,0,0,1,0,.21c0,.23.07.46.11.68a1.71,1.71,0,0,0,.22.54c.22.39.42.78.6,1.18a3.8,3.8,0,0,1,.31,1.19c0,.25,0,.49.06.74a6,6,0,0,1-.23,1.68c-.07.25-.13.49-.22.73a.24.24,0,0,1-.06.11,2.43,2.43,0,0,0,.42-1.16,8.72,8.72,0,0,0,.16-1.25,10,10,0,0,0,0-1.45,6.56,6.56,0,0,0-.24-1.45,4,4,0,0,0-.4-.92,9.42,9.42,0,0,1-.51-.87,2.12,2.12,0,0,1-.18-1s0,0,0-.05,0-.08,0-.07,0,0,0,.07a3.3,3.3,0,0,0,.26,1,1.56,1.56,0,0,0,.16.28c.18.26.35.54.51.82a4.45,4.45,0,0,1,.34.88,8.38,8.38,0,0,1,.29,1.39c0,.22,0,.43.06.65a7.15,7.15,0,0,1,0,.8,6.49,6.49,0,0,1-.43,2.22,2.76,2.76,0,0,1-.45.71,1.45,1.45,0,0,1-.31.29,5.54,5.54,0,0,0,2.07-.79A3.48,3.48,0,0,0,94,35.59a3.58,3.58,0,0,0,.43-1.39,3.73,3.73,0,0,0-.4-2.1,3.27,3.27,0,0,0-.66-.9,6.38,6.38,0,0,0-.9-.73c-.29-.2-.6-.39-.91-.58a1.87,1.87,0,0,1-.92-1.33.86.86,0,0,1,0-.32.11.11,0,0,0-.07-.15L90.33,28c-.06,0-.15,0-.18-.12a.4.4,0,0,1,.32,0l.58.09a1.55,1.55,0,0,0,.84,1.72,9.28,9.28,0,0,1,1.4.9,4,4,0,0,1,1.53,2.73A3.85,3.85,0,0,1,93,37.21a5.42,5.42,0,0,1-2.31.66c-.1,0-.21,0-.31,0h-.1a3.23,3.23,0,0,0-.44,0Z"/><path class="cls-3" d="M89.79,37.87s.08,0,.11,0a1.67,1.67,0,0,1,.32,0Z"/><path class="cls-3" d="M90.33,37.87a.76.76,0,0,1,.3,0h-.3Z"/><path class="cls-4" d="M90.06,37.25h0s0,0,0,0V27.91s0-.09,0-.1,0,0-.06,0-.14-.09-.2-.15a7.55,7.55,0,0,1,.72-2.38,4.42,4.42,0,0,1,.36-.68L90.46,26a7.41,7.41,0,0,1,2.33-2.49,12.53,12.53,0,0,0-1.68,2.39,5,5,0,0,1,2.55-1.73l-.31.29a17.93,17.93,0,0,0-2.84,3.36l-.05.09a1.73,1.73,0,0,0-.32,0,.11.11,0,0,0-.06.11v8.79A2.83,2.83,0,0,1,90.06,37.25Z"/><path class="cls-5" d="M89.94,27.78l.06,0s0,.08,0,.12v5.62a.58.58,0,0,1,0,.23h0a2.86,2.86,0,0,1-.48.66,1.63,1.63,0,0,0-.35.87,2.41,2.41,0,0,0,.4,1.73,1.17,1.17,0,0,0,.45.43,2.28,2.28,0,0,1-.45-.11,2,2,0,0,1-1.05-.7,3.28,3.28,0,0,1-.78-1.61,1.36,1.36,0,0,1,.17-.82,2.67,2.67,0,0,1,1-1.09,2.86,2.86,0,0,0,.4-.28,1.65,1.65,0,0,0,.54-1s0-.05,0-.07,0,0,0-.07,0,0,0,0h0a.22.22,0,0,1,0,.11,3.65,3.65,0,0,1-.14.35,1.58,1.58,0,0,1-.74.81,2.7,2.7,0,0,0-1,.79,2,2,0,0,0-.34,1.67,2.71,2.71,0,0,0,1.65,2l.21.08s0,0,0,0a4.92,4.92,0,0,1-.85-.26,1.29,1.29,0,0,1-.36-.25,6.19,6.19,0,0,1-1.36-2.09,2.81,2.81,0,0,1-.19-.81,1.92,1.92,0,0,1,.23-.91,3.29,3.29,0,0,1,1.15-1.33c.31-.23.64-.46,1-.67a1.23,1.23,0,0,0,.47-.59,5,5,0,0,0,.24-.92s0,0,0-.05l-.18.57c0,.07,0,.13-.07.2a1.43,1.43,0,0,1-.66.79,6.38,6.38,0,0,0-1.39,1,3.28,3.28,0,0,0-.86,1.58,1.63,1.63,0,0,0,0,.76,5.64,5.64,0,0,0,1,1.94,2.49,2.49,0,0,0,.95.84,0,0,0,0,1,0,0,3.89,3.89,0,0,1-2.66-2.69,3.53,3.53,0,0,1-.07-1.41,3.05,3.05,0,0,1,.62-1.56,6.1,6.1,0,0,1,.9-.86,9.69,9.69,0,0,1,1.11-.79,2.93,2.93,0,0,0,.84-.73,1.23,1.23,0,0,0,.22-.79,2.66,2.66,0,0,0-.31-1,.59.59,0,0,1,0-.08v0Z"/><path class="cls-6" d="M90.33,28h0a1.13,1.13,0,0,1,.29.15c.07.08,0,.2,0,.3a1.63,1.63,0,0,0,.39,1,1.9,1.9,0,0,0,.59.5,9.35,9.35,0,0,1,1.66,1.2A3.45,3.45,0,0,1,94.37,33a3.56,3.56,0,0,1-1.15,3.59,3.86,3.86,0,0,1-1.31.74,5.26,5.26,0,0,1-1,.29l-.13,0a3,3,0,0,0,.4-.39,3.22,3.22,0,0,0,.63-1.38,7.71,7.71,0,0,0,.19-2.3,9.16,9.16,0,0,0-.45-2.33A4.4,4.4,0,0,0,90.87,30a3.11,3.11,0,0,1-.53-1.48l0,.1a.13.13,0,0,1,0-.13,3.1,3.1,0,0,0,0-.43S90.29,28,90.33,28Z"/><path class="cls-5" d="M90.33,28c0,.22,0,.44,0,.67a2.28,2.28,0,0,0,.4,1.42,5.75,5.75,0,0,1,.57,1,5.38,5.38,0,0,1,.34,1.53,10.09,10.09,0,0,1,0,2.33c0,.39-.12.79-.21,1.18a2,2,0,0,1-.36.72h0a10.35,10.35,0,0,0,.43-1.54,5.24,5.24,0,0,0,.06-1.53,4.72,4.72,0,0,0-.25-1.23,8.71,8.71,0,0,0-.61-1.27,2.73,2.73,0,0,1-.28-.6,8,8,0,0,1-.15-1c0-.09,0-.19,0-.29s0-.2,0-.29h0c0,.1,0,.2,0,.31s0,.21,0,.31a7.48,7.48,0,0,0,.11,1.05,1.57,1.57,0,0,0,.18.42,9.07,9.07,0,0,1,.64,1.38,4.86,4.86,0,0,1,.21,2.24c-.06.45-.14.91-.24,1.36a2.57,2.57,0,0,1-.37.87s0,0,0,0a4.31,4.31,0,0,0,.41-1.65,4,4,0,0,0-.41-2.19,3.37,3.37,0,0,0-.25-.46,1.45,1.45,0,0,1-.2-.67c0-.15,0-.31-.06-.47a4,4,0,0,0,0,1,1.16,1.16,0,0,0,.2.4,3.57,3.57,0,0,1,.52,2.25,7.05,7.05,0,0,1-.21,1.3,1.73,1.73,0,0,1-.53.85.27.27,0,0,1-.08.07h0a1.42,1.42,0,0,0,.35-.74c0-.26.06-.52.09-.78a4.61,4.61,0,0,0-.27-1.8c-.05-.16-.09-.32-.14-.48a1.47,1.47,0,0,0,0,.36,8.37,8.37,0,0,1,.18,1,5,5,0,0,1-.27,2.26s0-.07,0-.1V27.92s0-.06,0-.09.06,0,.1,0Z"/><path class="cls-5" d="M90,33.78s0,0,0,.08v3.4a.3.3,0,0,1-.14-.1,2.32,2.32,0,0,1-.56-2,1.85,1.85,0,0,1,.34-.67,1.74,1.74,0,0,0,.32-.6s0,0,0-.08Z"/><path class="cls-7" d="M90.16,29.4c0,.1,0,.2,0,.29l0,0a1.83,1.83,0,0,1,0-.33h0Z"/><path class="cls-8" d="M90.68,37s0,0,0,0a.41.41,0,0,1-.1.14A.6.6,0,0,1,90.68,37Z"/><path class="cls-9" d="M89.79,31.85l0-.16a.31.31,0,0,1,0,.18Z"/><path class="cls-10" d="M89.47,37.53h0l.13,0A.14.14,0,0,1,89.47,37.53Z"/><path class="cls-11" d="M90.16,29.4h0a.86.86,0,0,1,0-.32C90.15,29.2,90.16,29.3,90.16,29.4Z"/></svg>