<svg width="111" height="46" viewBox="0 0 111 46" fill="none" xmlns="http://www.w3.org/2000/svg">
<path d="M23.0019 35.6672C16.0041 35.6672 10.3328 29.9959 10.3328 22.9981C10.3328 16.0041 16.0041 10.3289 23.0019 10.3289C28.5475 10.3289 33.2584 13.8926 34.9736 18.8513H45.6265C43.675 8.12975 34.2875 0 23.0019 0C10.2984 0 0 10.2985 0 22.9981C0 35.7015 10.2984 46 23.0019 46C34.2875 46 43.675 37.8702 45.6265 27.1487H34.9736C33.2584 32.1074 28.5437 35.6672 23.0019 35.6672Z" fill="#7D4399"/>
<path d="M45.6265 21.6222V24.3778H31.5623C30.903 28.5132 27.3202 31.6729 22.9981 31.6729C18.211 31.6729 14.3271 27.789 14.3271 22.9981C14.3271 18.211 18.211 14.3271 22.9981 14.3271C27.3202 14.3271 30.903 17.4868 31.5623 21.6222H45.6265Z" fill="#FFBF00"/>
<path d="M60.9865 11.3313C61.825 12.1165 62.2671 13.1761 62.3128 14.5101H59.3323C59.2103 13.9688 58.9473 13.5458 58.5471 13.2332C58.1431 12.9245 57.621 12.7683 56.9807 12.7683C56.165 12.7683 55.4447 13.0732 54.8272 13.6792C54.2098 14.2852 53.8096 15.097 53.6342 16.1147C53.5771 16.4463 53.5504 16.7283 53.5504 16.9608C53.5504 17.7345 53.7562 18.3405 54.164 18.7827C54.5718 19.2248 55.1245 19.4459 55.8182 19.4459C56.4471 19.4459 57.0188 19.2896 57.5333 18.9809C58.0479 18.6721 58.4595 18.2529 58.7682 17.7231H61.764C61.2342 19.0495 60.4109 20.1052 59.298 20.8942C58.1813 21.6832 56.8854 22.0795 55.4065 22.0795C54.4118 22.0795 53.558 21.8852 52.8415 21.5002C52.1249 21.1153 51.5761 20.5702 51.2025 19.8689C50.8252 19.1676 50.6385 18.352 50.6385 17.4258C50.6385 16.9722 50.6766 16.5377 50.7528 16.1185C50.951 14.9598 51.3664 13.9269 51.9953 13.0236C52.6242 12.1203 53.4132 11.4152 54.3622 10.9121C55.3113 10.409 56.3556 10.1574 57.4914 10.1574C58.9816 10.1536 60.1441 10.5462 60.9865 11.3313Z" fill="#010A42"/>
<path d="M68.5788 13.1341C69.1924 12.8026 69.8251 12.6387 70.4731 12.6387L69.9433 15.6687H69.1162C68.3654 15.6687 67.7555 15.8288 67.2867 16.149C66.8179 16.4691 66.5206 17.0104 66.4025 17.7726L65.6554 21.9804H62.8083L64.432 12.7416H67.2791L66.9818 14.4796C67.4316 13.9117 67.9652 13.4657 68.5788 13.1341Z" fill="#010A42"/>
<path d="M74.4827 12.7378L72.8438 21.9766H70.0119L71.6356 12.7378H74.4827ZM72.3788 9.15122C72.7523 8.81581 73.2249 8.64811 73.7852 8.64811C74.2273 8.64811 74.578 8.76245 74.8372 8.98733C75.0963 9.2122 75.2259 9.50949 75.2259 9.87157C75.2259 10.3556 75.0392 10.7673 74.6695 11.1065C74.2997 11.4419 73.8348 11.6096 73.2707 11.6096C72.8171 11.6096 72.4626 11.4952 72.2035 11.2704C71.9443 11.0455 71.8147 10.7558 71.8147 10.4014C71.8147 9.90588 72.0015 9.49043 72.3788 9.15122Z" fill="#010A42"/>
<path d="M84.5753 13.5648C85.1661 14.1937 85.4596 15.0665 85.4596 16.1833C85.4596 16.5492 85.4253 16.9379 85.3605 17.3572C85.1852 18.3177 84.8612 19.1562 84.3924 19.8727C83.9236 20.5893 83.3519 21.1381 82.6772 21.5193C82.0026 21.9004 81.2899 22.091 80.539 22.091C79.8225 22.091 79.2393 21.9309 78.7934 21.6107C78.3475 21.2906 78.0578 20.8561 77.9244 20.3034L76.8496 26.3826H74.0025L76.4189 12.7378H79.2508L78.9535 14.411C79.2851 13.8583 79.731 13.4238 80.2951 13.1037C80.8592 12.7835 81.4995 12.6234 82.2161 12.6234C83.1956 12.6196 83.9846 12.936 84.5753 13.5648ZM81.6177 19.0152C82.0598 18.6188 82.3456 18.0661 82.479 17.361C82.5133 17.1628 82.5286 16.9799 82.5286 16.816C82.5286 16.2748 82.3761 15.8555 82.075 15.5582C81.7701 15.2609 81.3661 15.1123 80.8592 15.1123C80.2646 15.1123 79.7386 15.3143 79.2851 15.7183C78.8315 16.1223 78.5457 16.6711 78.4237 17.3648C78.3894 17.5401 78.3742 17.7193 78.3742 17.8946C78.3742 18.4358 78.5266 18.8589 78.8277 19.16C79.1326 19.4649 79.5366 19.6136 80.0436 19.6136C80.6534 19.6097 81.1755 19.4116 81.6177 19.0152Z" fill="#010A42"/>
<path d="M89.8008 18.5654C89.7779 18.7217 89.7665 18.8246 89.7665 18.8818C89.7665 19.1143 89.8313 19.282 89.9647 19.3887C90.0981 19.4954 90.3115 19.5449 90.6088 19.5449H91.5045L91.0738 21.9804H89.7817C88.8556 21.9804 88.139 21.7861 87.6359 21.4011C87.1328 21.0162 86.8812 20.3796 86.8812 19.4954C86.8812 19.1409 86.9079 18.817 86.9651 18.5197L87.5597 15.1237H86.3324L86.7631 12.7378H87.9904L88.3868 10.47H91.2339L90.8375 12.7378H92.6746L92.2592 15.1237H90.403L89.8008 18.5654Z" fill="#010A42"/>
<path d="M97.4351 22.5179C97.3283 22.4797 97.2178 22.4912 97.1073 22.4797C95.7504 22.3425 94.6413 21.7594 93.8485 20.635C93.3492 19.9261 93.1777 19.1257 93.1929 18.2719C93.2196 16.957 93.8523 15.9737 94.8547 15.1885C95.3769 14.7807 95.9448 14.43 96.4974 14.0679C96.8748 13.8202 97.0082 13.4657 96.9815 13.0351C96.9586 12.6387 96.81 12.2804 96.6308 11.9374C96.6118 11.9031 96.5699 11.8688 96.6308 11.8306C96.6804 11.8002 96.7109 11.7392 96.7909 11.7963C97.0234 11.9602 97.2635 12.1127 97.5037 12.269C97.5799 12.2994 97.6637 12.3185 97.6904 12.4138C97.6485 12.4405 97.6142 12.4138 97.5761 12.3985C97.3779 12.3185 97.1797 12.2308 96.951 12.1432C97.0005 12.2575 97.0463 12.3528 97.092 12.4443C97.2102 12.6958 97.2826 12.955 97.294 13.2294C97.3093 13.5648 97.1911 13.8507 96.9739 14.1061C96.7147 14.4148 96.3869 14.6358 96.0477 14.8379C95.6056 15.1008 95.213 15.4286 94.8242 15.7602C94.5917 15.9584 94.3745 16.1718 94.1877 16.4158C93.8485 16.8579 93.6732 17.3648 93.6084 17.9137C93.5893 18.0776 93.5741 18.2453 93.5703 18.4091C93.5474 19.2019 93.7913 19.907 94.264 20.5359C94.7328 21.1648 95.3197 21.6336 96.0591 21.908C96.1011 21.9233 96.1392 21.9423 96.1811 21.9538C96.2192 21.9652 96.2497 21.9919 96.2954 21.9995C96.3031 21.9995 96.2954 21.9804 96.2954 21.9919C96.2954 21.9957 96.2916 21.9995 96.2878 21.9957C96.0744 21.9118 95.8952 21.7746 95.739 21.6107C95.3502 21.1991 95.0339 20.7341 94.7747 20.2348C94.5612 19.827 94.405 19.3963 94.3287 18.9389C94.2944 18.7484 94.3021 18.5578 94.3554 18.3672C94.5422 17.6964 94.8852 17.1247 95.415 16.6673C95.8038 16.3319 96.2268 16.0461 96.669 15.7869C96.9319 15.6344 97.0996 15.4134 97.214 15.1351C97.3131 14.895 97.3817 14.6435 97.4655 14.3995C97.477 14.3614 97.4808 14.2928 97.5303 14.3043C97.5799 14.3157 97.557 14.3767 97.5494 14.4186C97.4922 14.7083 97.4351 14.9979 97.3245 15.2762C97.2178 15.5392 97.0539 15.7488 96.8138 15.9089C96.4441 16.1528 96.0668 16.3967 95.7199 16.675C95.1368 17.1361 94.7251 17.7117 94.5422 18.4396C94.5041 18.5883 94.5041 18.7369 94.5269 18.8856C94.6032 19.4687 94.8509 19.9833 95.1444 20.4826C95.3845 20.8904 95.6856 21.2563 96.002 21.6069C96.1392 21.7594 96.3107 21.8547 96.4974 21.9347C96.7376 22.0376 96.9929 22.0834 97.2369 22.171C97.2826 22.1901 97.3321 22.1939 97.3779 22.2206C97.3398 22.1977 97.294 22.1939 97.2521 22.1748C96.5127 21.9271 95.941 21.4773 95.5903 20.776C95.354 20.3034 95.2664 19.7927 95.3464 19.2629C95.4074 18.878 95.5903 18.5502 95.8495 18.2605C96.0934 17.9861 96.3869 17.7803 96.7109 17.6088C97.0577 17.422 97.2864 17.1247 97.4351 16.7626C97.4732 16.6711 97.496 16.572 97.557 16.492C97.5761 16.4882 97.5875 16.4958 97.5951 16.5111C97.6028 16.5339 97.5989 16.5568 97.5951 16.5797C97.5075 16.9875 97.3131 17.3305 96.9777 17.5859C96.8443 17.6888 96.6994 17.765 96.5622 17.8603C96.1887 18.1195 95.899 18.4511 95.6818 18.8513C95.4455 19.2858 95.4493 19.7279 95.6208 20.1815C95.8038 20.6693 96.0858 21.0924 96.4365 21.4697C96.6956 21.748 97.031 21.9004 97.3893 22.0071C97.4808 22.0338 97.5723 22.0643 97.6714 22.0834C97.3931 21.908 97.2216 21.6527 97.0996 21.3592C97.0463 21.2296 97.0005 21.1 96.9472 20.9666C96.8024 20.5931 96.8405 20.2081 96.9015 19.827C96.9586 19.4649 97.134 19.16 97.3855 18.8932C97.4998 18.7712 97.6142 18.6416 97.679 18.4816C97.6904 18.4587 97.698 18.413 97.7438 18.4473C97.7476 18.6112 97.6637 18.7484 97.5837 18.878C97.477 19.0495 97.3474 19.2057 97.2483 19.3849C97.0005 19.8384 96.951 20.311 97.1149 20.7989C97.2102 21.0848 97.3245 21.3668 97.5037 21.6146C97.5608 21.6946 97.6218 21.7746 97.7095 21.8318C97.74 21.7937 97.7285 21.7518 97.7285 21.7136C97.7285 20.7227 97.7285 19.7317 97.7285 18.7446C97.7285 18.6645 97.7247 18.5845 97.7438 18.5082C97.7514 18.4701 97.7476 18.4358 97.7247 18.4053C97.7171 18.3139 97.7285 18.2262 97.7285 18.1385C97.7285 16.3129 97.7285 14.4872 97.7285 12.6615C97.7285 12.5967 97.7171 12.5281 97.7514 12.4671C97.7971 12.4252 97.8162 12.4519 97.8238 12.4976C97.8353 12.5472 97.8276 12.5967 97.8276 12.6463C97.8276 15.6573 97.8276 18.6683 97.8276 21.6793C97.8276 21.7213 97.8238 21.767 97.8314 21.8089C97.8848 21.7365 97.8962 21.6489 97.9191 21.5688C98.0334 21.1686 98.0716 20.7646 98.0944 20.3492C98.1287 19.7508 98.0068 19.1791 97.8924 18.6035C97.8772 18.5273 97.8696 18.4511 97.8581 18.3787C97.8505 18.3367 97.8467 18.291 97.8848 18.2605C97.9267 18.2758 97.9305 18.3177 97.9382 18.3482C98.0029 18.5959 98.0792 18.8398 98.1554 19.0838C98.2659 19.442 98.3193 19.8079 98.3422 20.1815C98.3574 20.414 98.3117 20.6465 98.2964 20.8751C98.2888 21.0276 98.2659 21.18 98.2431 21.3287C98.2088 21.5841 98.1059 21.8127 97.9534 21.9957C98.2964 21.6908 98.4603 21.2715 98.5518 20.8103C98.628 20.4101 98.6699 20.0099 98.689 19.6021C98.7119 19.1829 98.6242 18.7827 98.5175 18.3825C98.4451 18.1042 98.3193 17.8527 98.163 17.6202C97.9839 17.3534 97.9039 17.0637 97.9115 16.7436C97.9153 16.6063 97.9115 16.4691 97.9115 16.3357C97.9115 16.2938 97.9077 16.2481 97.9458 16.21C97.9915 16.2366 97.9839 16.2786 97.9877 16.3129C98.0068 16.4996 98.022 16.6902 98.0487 16.877C98.0716 17.0332 98.1135 17.1819 98.2011 17.3153C98.5327 17.826 98.7386 18.3901 98.8567 18.9847C98.9253 19.3163 98.9101 19.6517 98.8872 19.9871C98.8643 20.3415 98.8072 20.6922 98.7233 21.039C98.6699 21.2563 98.5861 21.4621 98.4756 21.6565C98.4565 21.7098 98.407 21.7441 98.3993 21.8013C98.407 21.748 98.4527 21.7175 98.4718 21.6679C98.7042 21.2639 98.8224 20.8256 98.9063 20.372C98.9711 20.0061 99.0397 19.6402 99.0778 19.2705C99.1159 18.8932 99.1159 18.5159 99.0511 18.1385C98.9672 17.6583 98.8529 17.1895 98.6509 16.7436C98.5327 16.4882 98.4184 16.229 98.2697 15.9889C98.0716 15.6649 97.9801 15.3143 97.9534 14.9408C97.9382 14.754 97.9 14.5672 97.9191 14.3767C97.9267 14.3538 97.9343 14.3309 97.9648 14.3347C98.003 14.3995 97.9991 14.4758 98.0106 14.5482C98.0411 14.7769 98.0792 15.0017 98.1135 15.2266C98.1478 15.4248 98.2431 15.5963 98.3422 15.764C98.5594 16.149 98.7614 16.5416 98.9406 16.9456C99.1083 17.3267 99.2035 17.7231 99.2493 18.1385C99.276 18.3825 99.2988 18.6264 99.3065 18.8741C99.3217 19.4459 99.2264 20.0061 99.074 20.555C99.0054 20.7989 98.952 21.0467 98.8605 21.283C98.8453 21.3211 98.83 21.363 98.7995 21.3935C99.0663 21.0543 99.1502 20.6465 99.2226 20.2348C99.295 19.8194 99.356 19.4001 99.3827 18.9809C99.4132 18.5006 99.4208 18.0204 99.3903 17.5363C99.3598 17.0447 99.2836 16.5606 99.1502 16.0842C99.0587 15.7602 98.9139 15.4553 98.7462 15.1656C98.5785 14.876 98.3803 14.6015 98.2393 14.2966C98.0868 13.9727 98.0373 13.6258 98.0563 13.2675C98.0601 13.2485 98.0677 13.2294 98.0716 13.2104C98.0754 13.1837 98.0716 13.138 98.1097 13.1418C98.144 13.1456 98.1402 13.1875 98.144 13.218C98.1783 13.5572 98.2736 13.8812 98.407 14.1975C98.4489 14.2966 98.5099 14.3843 98.567 14.472C98.7462 14.7388 98.9215 15.0094 99.074 15.2952C99.2226 15.5735 99.3408 15.8669 99.4208 16.1757C99.5428 16.633 99.6533 17.0904 99.7067 17.563C99.7333 17.7803 99.7448 17.9975 99.7638 18.2186C99.7829 18.4854 99.7867 18.7522 99.7753 19.0152C99.7486 19.7774 99.6381 20.5245 99.3484 21.2334C99.2417 21.4964 99.0816 21.7289 98.8948 21.9461C98.8072 22.0452 98.7233 22.1482 98.5899 22.2358C99.3446 22.091 100.031 21.8509 100.656 21.443C101.125 21.1343 101.49 20.7265 101.765 20.2348C102.005 19.8003 102.15 19.3353 102.196 18.8437C102.264 18.108 102.135 17.4029 101.795 16.7397C101.624 16.4043 101.407 16.1032 101.14 15.8403C100.865 15.5696 100.56 15.3333 100.24 15.1161C99.943 14.9103 99.6342 14.7197 99.3255 14.5291C98.8262 14.2242 98.4984 13.7859 98.4031 13.1989C98.3841 13.0922 98.3879 12.9855 98.4108 12.8826C98.426 12.8102 98.4032 12.7644 98.3345 12.7301C98.2507 12.6958 98.1745 12.6501 98.0944 12.612C98.0373 12.5662 97.9458 12.5815 97.9191 12.4938C98.0296 12.4557 98.1364 12.4786 98.2393 12.5281C98.4336 12.5586 98.6242 12.5853 98.8186 12.6158C98.6852 13.3476 98.9825 13.9498 99.6609 14.3347C100.145 14.6054 100.625 14.8798 101.06 15.2304C101.929 15.9394 102.47 16.8465 102.588 17.9632C102.767 19.6364 102.127 20.9399 100.717 21.8509C100.206 22.1825 99.6266 22.3463 99.0282 22.4454C98.8224 22.4797 98.6128 22.5064 98.4031 22.5102C98.3041 22.5331 98.2011 22.4988 98.0982 22.5255C98.0639 22.5255 98.0334 22.5255 97.9991 22.5255C97.8543 22.5102 97.7057 22.5102 97.5608 22.5255C97.5151 22.5179 97.4732 22.5179 97.4351 22.5179Z" fill="black"/>
<path d="M97.5532 22.5179C97.5875 22.4759 97.6333 22.495 97.6714 22.4988C97.7781 22.5064 97.8886 22.4797 97.9915 22.5179C97.8467 22.5179 97.6981 22.5179 97.5532 22.5179Z" fill="#454545"/>
<path d="M98.0906 22.5179C98.1897 22.4836 98.2926 22.495 98.3955 22.5026C98.3917 22.5064 98.3917 22.514 98.3917 22.5179C98.2926 22.5179 98.1935 22.5179 98.0906 22.5179Z" fill="#454545"/>
<path d="M97.8276 21.889C97.8238 21.8928 97.82 21.9004 97.8162 21.9042C97.8086 21.908 97.7971 21.9195 97.7971 21.9004C97.7971 21.8699 97.7971 21.8394 97.7971 21.8089C97.7971 18.7255 97.7971 15.6421 97.7971 12.5548C97.7971 12.5205 97.8314 12.4671 97.7628 12.4519C97.7323 12.4633 97.7171 12.4405 97.7057 12.4176C97.6561 12.3452 97.5646 12.3223 97.5075 12.2613C97.6066 11.4266 97.8695 10.6377 98.224 9.8792C98.3307 9.6467 98.4451 9.42182 98.5861 9.20457C98.4679 9.67338 98.3498 10.1422 98.2316 10.611C98.7881 9.57428 99.6152 8.79675 100.557 8.12213C99.9353 8.87679 99.3141 9.62764 98.8758 10.5119C99.5275 9.6467 100.408 9.1131 101.426 8.78151C101.323 8.87679 101.216 8.97589 101.113 9.07117C100.034 10.0774 99.0854 11.1941 98.2774 12.4328C98.2583 12.4595 98.2431 12.49 98.2278 12.5205C98.1211 12.5281 98.0144 12.4748 97.9039 12.4976C97.8619 12.5205 97.8429 12.5548 97.8429 12.6044C97.8429 12.6425 97.8429 12.6768 97.8429 12.7149C97.8429 14.4986 97.8429 16.2824 97.8429 18.0661C97.8429 19.1752 97.8429 20.2844 97.8429 21.3935C97.8467 21.5612 97.8543 21.7251 97.8276 21.889Z" fill="#A9CE00"/>
<path d="M97.7057 12.4214C97.7247 12.4328 97.7438 12.4443 97.7628 12.4557C97.7628 12.4938 97.759 12.5358 97.759 12.5739C97.759 14.4453 97.759 16.3167 97.759 18.1919C97.759 18.2719 97.7628 18.352 97.7362 18.4282L97.74 18.4244C97.6294 18.6798 97.4313 18.8741 97.2559 19.0838C97.0425 19.3315 96.9624 19.6326 96.9053 19.949C96.7909 20.5855 96.9853 21.1496 97.3055 21.6832C97.4122 21.8623 97.5685 22.0033 97.7552 22.11C97.599 22.0986 97.4541 22.0491 97.3093 22.0071C96.8786 21.8852 96.5318 21.645 96.2535 21.302C95.8648 20.8256 95.5675 20.311 95.476 19.6936C95.4341 19.3963 95.5179 19.1257 95.6475 18.8703C95.8762 18.4168 96.2116 18.0547 96.6423 17.7803C96.7795 17.6926 96.9205 17.6088 97.0425 17.502C97.3474 17.2429 97.4999 16.8998 97.5799 16.5187C97.5875 16.492 97.5837 16.4653 97.5913 16.4425C97.5989 16.4234 97.6142 16.4043 97.6028 16.3777C97.6028 16.3662 97.5875 16.3777 97.599 16.3739C97.6028 16.3739 97.6066 16.3739 97.6066 16.3815C97.599 16.4234 97.5913 16.4653 97.5608 16.4958C97.5151 16.614 97.4694 16.7321 97.4198 16.8465C97.2635 17.2009 97.0196 17.4754 96.6728 17.6583C96.2993 17.8527 95.9753 18.108 95.7237 18.4473C95.3502 18.9504 95.2664 19.5106 95.3883 20.1167C95.5827 21.0733 96.1773 21.687 97.0387 22.0795C97.1073 22.11 97.1797 22.1367 97.2521 22.1634C97.2597 22.1825 97.2559 22.1901 97.2331 22.1825C96.9472 22.1138 96.6613 22.0414 96.3907 21.9195C96.2573 21.8585 96.1316 21.7823 96.0286 21.6755C95.4455 21.0657 94.9691 20.3835 94.668 19.5869C94.5689 19.3239 94.5003 19.0571 94.4774 18.775C94.4507 18.4473 94.5841 18.1576 94.7099 17.8679C94.9576 17.3077 95.3655 16.8808 95.8533 16.5301C96.1697 16.3014 96.4936 16.0766 96.8214 15.8631C97.0463 15.7145 97.1911 15.5163 97.2902 15.2724C97.4084 14.9751 97.4694 14.6625 97.5304 14.35C97.5342 14.3347 97.5303 14.3195 97.5189 14.3043C97.4579 14.4948 97.3969 14.6854 97.336 14.876C97.3131 14.9408 97.2864 15.0056 97.2674 15.0742C97.1492 15.421 96.9281 15.6764 96.6042 15.8593C96.1011 16.149 95.6246 16.4768 95.2168 16.8884C94.7785 17.3305 94.4965 17.8603 94.3554 18.4663C94.2945 18.7217 94.3516 18.9732 94.4126 19.2248C94.5917 19.9452 94.9538 20.5778 95.3921 21.1648C95.6475 21.5078 95.9257 21.828 96.3336 21.9995C96.3259 22.0262 96.3107 22.0186 96.3031 22.0148C94.9615 21.5688 94.062 20.6808 93.6465 19.3239C93.5055 18.8627 93.5322 18.3825 93.5817 17.9099C93.6427 17.3381 93.8371 16.816 94.1954 16.3586C94.4545 16.027 94.7785 15.7602 95.0987 15.4896C95.4455 15.1999 95.8152 14.9408 96.204 14.7083C96.5279 14.5139 96.8176 14.2776 97.0463 13.9727C97.2254 13.7364 97.2712 13.4734 97.2674 13.1837C97.2597 12.8216 97.0997 12.5129 96.9548 12.1965C96.9434 12.1699 96.9281 12.1432 96.9167 12.1165C96.9167 12.1127 96.9167 12.1089 96.9167 12.0898C97.1835 12.2042 97.4427 12.3109 97.7057 12.4214Z" fill="#FEFCD8"/>
<path d="M98.0906 12.5891C98.102 12.5929 98.1135 12.6005 98.1287 12.6044C98.2278 12.6539 98.346 12.6806 98.4146 12.7568C98.4832 12.833 98.407 12.9512 98.4108 13.0541C98.426 13.4276 98.5747 13.7478 98.8034 14.0375C98.9634 14.2433 99.1654 14.4034 99.3903 14.5367C99.9811 14.8874 100.553 15.2609 101.056 15.7297C101.616 16.2481 101.986 16.8846 102.138 17.6278C102.424 19.0342 102.062 20.2463 100.987 21.2182C100.61 21.5612 100.149 21.7746 99.6724 21.9576C99.3408 22.0872 98.9977 22.1825 98.6509 22.2472C98.6204 22.2549 98.5861 22.2549 98.5213 22.2625C98.6814 22.1291 98.8034 22.0071 98.9215 21.8699C99.2607 21.4735 99.4322 20.9971 99.5504 20.4978C99.7333 19.7393 99.7753 18.9694 99.7333 18.1919C99.6914 17.3953 99.539 16.6178 99.2912 15.8631C99.1464 15.4172 98.9101 15.0132 98.6395 14.6358C98.3231 14.1899 98.163 13.6944 98.1059 13.1494C98.0944 13.1913 98.0868 13.2218 98.0792 13.2523C98.0373 13.218 98.0411 13.1685 98.0487 13.1227C98.0677 12.9817 98.0639 12.8369 98.0677 12.6958C98.0639 12.6615 98.0601 12.6196 98.0906 12.5891Z" fill="#7D4399"/>
<path d="M98.0906 12.5891C98.1059 12.814 98.0716 13.035 98.0754 13.2599C98.0487 13.7783 98.1859 14.2471 98.4718 14.6816C98.689 15.0094 98.8986 15.3486 99.0435 15.7145C99.2417 16.2061 99.3331 16.7207 99.3865 17.2429C99.4665 18.0204 99.4399 18.7979 99.3446 19.5716C99.295 19.968 99.2264 20.3606 99.135 20.7494C99.0702 21.02 98.9291 21.2525 98.7691 21.4697C98.7652 21.4773 98.7538 21.4773 98.7424 21.485C98.9368 20.9819 99.0663 20.4635 99.1731 19.9413C99.276 19.4344 99.2798 18.9275 99.234 18.413C99.1959 17.9937 99.1349 17.5821 98.9863 17.1857C98.8224 16.7436 98.6013 16.3281 98.3765 15.9127C98.2698 15.7183 98.1402 15.5353 98.0906 15.3143C98.0182 14.9941 97.9801 14.6663 97.9458 14.3386C97.9039 14.2433 97.9305 14.1404 97.9153 14.0413C97.9 13.946 97.9 13.8469 97.9039 13.7516C97.8848 13.7478 97.8924 13.7478 97.8962 13.7516C97.9115 13.8545 97.8962 13.9574 97.9229 14.0603C97.9229 14.167 97.9344 14.2699 97.9305 14.3767C97.9458 14.7273 97.9801 15.078 98.0487 15.4248C98.0792 15.5773 98.1478 15.7107 98.2202 15.8479C98.4641 16.2938 98.7081 16.7397 98.8605 17.2238C99.0892 17.9518 99.1959 18.695 99.0778 19.4611C99.0092 19.9185 98.9329 20.372 98.8338 20.8218C98.7652 21.1343 98.6395 21.424 98.468 21.6946C98.4489 21.6984 98.4413 21.6946 98.4489 21.6755C98.7195 21.1572 98.7919 20.5931 98.8567 20.0252C98.9444 19.2515 98.769 18.5273 98.4489 17.8336C98.3765 17.6735 98.2888 17.5173 98.1935 17.3724C98.0601 17.1666 98.0106 16.9418 97.9915 16.7054C97.9763 16.5492 97.961 16.3891 97.9382 16.2328C97.9343 16.5568 97.9 16.8846 97.9877 17.2047C98.0258 17.3534 98.0982 17.4792 98.1821 17.6049C98.6242 18.291 98.7614 19.0495 98.7004 19.8499C98.6661 20.292 98.6166 20.7303 98.4908 21.1534C98.3955 21.485 98.2316 21.7784 97.9687 22.0071C97.942 22.03 97.9115 22.0529 97.881 22.0757C97.8772 22.0795 97.8696 22.0757 97.8505 22.0719C98.0373 21.8547 98.1745 21.6146 98.2088 21.3325C98.2393 21.0733 98.2621 20.8103 98.2888 20.5512C98.3536 19.9299 98.205 19.3391 98.022 18.7522C97.9725 18.5959 97.9305 18.4358 97.8772 18.2757C97.8734 18.3977 97.9001 18.5159 97.9229 18.6378C97.9839 18.9656 98.0754 19.2934 98.0982 19.6288C98.1554 20.3987 98.1211 21.161 97.8276 21.8928C97.7933 21.8661 97.8048 21.8242 97.8048 21.7899C97.8048 18.7141 97.8048 15.6382 97.8048 12.5624C97.8048 12.5319 97.8086 12.5053 97.8086 12.4748C97.8505 12.4671 97.8734 12.4976 97.9077 12.5015C97.9687 12.5281 98.0296 12.5586 98.0906 12.5891Z" fill="#FEFCD8"/>
<path d="M97.7324 18.4282C97.7628 18.4473 97.7514 18.4739 97.7514 18.5006C97.7514 19.6288 97.7514 20.7608 97.7514 21.9004C97.6904 21.8852 97.6447 21.847 97.6142 21.8051C97.153 21.2029 96.8595 20.555 97.0539 19.7736C97.1149 19.5259 97.2407 19.3086 97.3893 19.1028C97.5227 18.9161 97.6637 18.7369 97.7171 18.5044C97.7285 18.4778 97.7324 18.4511 97.7324 18.4282C97.7362 18.4244 97.7324 18.4282 97.7324 18.4282Z" fill="#FEFCD8"/>
<path d="M97.9305 14.0451C97.9382 14.1442 97.942 14.2433 97.9496 14.3424C97.942 14.3576 97.9382 14.369 97.9305 14.3843C97.9 14.2776 97.9153 14.1709 97.9115 14.0603C97.9077 14.0565 97.9077 14.0489 97.9077 14.0451C97.9153 14.0375 97.9229 14.0413 97.9305 14.0451Z" fill="#504F44"/>
<path d="M98.4489 21.6793C98.4565 21.687 98.4603 21.6946 98.468 21.6984C98.4489 21.7441 98.4184 21.7861 98.3689 21.8356C98.3803 21.7632 98.4146 21.7213 98.4489 21.6793Z" fill="#ADAB93"/>
<path d="M97.557 16.4958C97.5723 16.4501 97.5837 16.4043 97.6066 16.3319C97.6104 16.4158 97.6028 16.4691 97.5761 16.5187C97.5685 16.5111 97.5646 16.5034 97.557 16.4958Z" fill="#57564A"/>
<path d="M97.233 22.1825C97.2407 22.1748 97.2445 22.171 97.2521 22.1634C97.294 22.1786 97.336 22.1901 97.3779 22.2053C97.3245 22.2129 97.275 22.2129 97.233 22.1825Z" fill="#717060"/>
<path d="M97.9305 14.0451C97.9229 14.0489 97.9191 14.0565 97.9115 14.0603C97.8696 13.9536 97.9039 13.8469 97.9077 13.7402C97.9153 13.8431 97.9229 13.9422 97.9305 14.0451Z" fill="#BBB9A0"/>
<path d="M53.6304 28.094L53.215 30.5447H57.156L56.7749 32.6829H52.8186L52.3727 35.2823H56.8282L56.4318 37.5501H49.1444L51.1987 25.8414H58.4862L58.0898 28.094H53.6304Z" fill="#010A42"/>
<path d="M65.7698 29.0621C66.4559 29.6414 66.837 30.4189 66.9132 31.387H64.1309C64.1195 31.0021 63.9746 30.701 63.7002 30.4913C63.4258 30.2817 63.0484 30.175 62.5758 30.175C62.2328 30.175 61.9546 30.2398 61.7411 30.3732C61.5277 30.5066 61.4172 30.6972 61.4172 30.9525C61.4172 31.2079 61.5658 31.4061 61.8631 31.5471C62.1604 31.6919 62.6139 31.8406 63.22 31.993C63.8946 32.1798 64.4434 32.3589 64.8665 32.5304C65.2896 32.702 65.6593 32.9611 65.968 33.308C66.2767 33.6548 66.433 34.1122 66.433 34.6725C66.433 34.905 66.4101 35.1146 66.3682 35.3014C66.2348 35.995 65.8346 36.5629 65.1676 36.9974C64.5006 37.4319 63.6011 37.653 62.4767 37.653C61.2304 37.653 60.228 37.3748 59.4695 36.8183C58.7149 36.2618 58.3147 35.4729 58.2689 34.459H61.0513C61.017 34.8554 61.1542 35.1603 61.4667 35.37C61.7754 35.5796 62.1909 35.6863 62.7092 35.6863C63.0828 35.6863 63.3648 35.6101 63.5554 35.4614C63.7421 35.3128 63.8374 35.1184 63.8374 34.8745C63.8374 34.6 63.6926 34.3904 63.4067 34.2532C63.1209 34.116 62.6559 33.9597 62.0156 33.7806C61.3752 33.6167 60.8454 33.4452 60.4262 33.2737C60.0069 33.1022 59.6449 32.8468 59.3399 32.5114C59.035 32.176 58.8864 31.7301 58.8864 31.1774C58.8864 31.0554 58.9093 30.8534 58.9512 30.5638C59.0617 29.8701 59.4543 29.2984 60.1289 28.8486C60.8035 28.4027 61.703 28.1778 62.8274 28.1778C64.1042 28.1931 65.0876 28.4827 65.7698 29.0621Z" fill="#010A42"/>
<path d="M75.9958 29.1802C76.7086 29.8358 77.0707 30.7391 77.0821 31.8863H74.0673C74.0444 31.4899 73.9186 31.1812 73.6861 30.9601C73.4536 30.7391 73.1297 30.6286 72.7104 30.6286C72.2149 30.6286 71.769 30.8267 71.3764 31.2155C70.9838 31.6081 70.7208 32.1798 70.5912 32.9307C70.5455 33.1517 70.5265 33.3842 70.5265 33.6243C70.5265 34.1541 70.6522 34.5543 70.9076 34.8249C71.163 35.0955 71.4984 35.2289 71.9176 35.2289C72.3369 35.2289 72.7028 35.1184 73.0115 34.8973C73.3202 34.6763 73.5527 34.3676 73.7052 33.9712H76.701C76.2931 35.1184 75.6261 36.0217 74.7038 36.6773C73.7814 37.3328 72.7256 37.6644 71.5327 37.6644C70.3397 37.6644 69.3868 37.3252 68.6779 36.6468C67.9652 35.9684 67.6107 35.0307 67.6107 33.8378C67.6107 33.5519 67.6488 33.1631 67.7251 32.6791C67.889 31.7644 68.2282 30.964 68.7351 30.2855C69.242 29.6071 69.8709 29.0887 70.6217 28.7305C71.3726 28.3722 72.1959 28.1931 73.0877 28.1931C74.315 28.1931 75.2831 28.5208 75.9958 29.1802Z" fill="#010A42"/>
<path d="M83.3671 28.7076C83.9807 28.376 84.6134 28.2121 85.2614 28.2121L84.7316 31.2422H83.9045C83.1537 31.2422 82.5438 31.4023 82.075 31.7224C81.6062 32.0426 81.3089 32.5838 81.1908 33.3461L80.4437 37.5539H77.5966L79.2203 28.315H82.0674L81.7701 30.053C82.2199 29.4851 82.7535 29.0392 83.3671 28.7076Z" fill="#010A42"/>
<path d="M110.318 28.3112L106.312 37.5501H103.148L102.569 31.3413L99.7715 37.5501H96.608L95.8952 28.3112H98.7119L98.7614 34.9698L101.658 28.3112H104.673L105.268 34.985L107.684 28.3112H110.318Z" fill="#010A42"/>
<path d="M89.6674 37.8741C89.5607 37.8359 89.4501 37.8474 89.3396 37.8359C87.9827 37.6987 86.8736 37.1156 86.0808 35.9912C85.5815 35.2823 85.41 34.4819 85.4253 33.6281C85.452 32.3132 86.0846 31.3299 87.087 30.5447C87.6092 30.1369 88.1771 29.7862 88.7298 29.4241C89.1071 29.1764 89.2405 28.8219 89.2138 28.3912C89.191 27.9949 89.0423 27.6366 88.8632 27.2936C88.8441 27.2593 88.8022 27.225 88.8632 27.1868C88.9127 27.1564 88.9432 27.0954 89.0232 27.1525C89.2557 27.3164 89.4959 27.4689 89.736 27.6252C89.8122 27.6556 89.8961 27.6747 89.9227 27.77C89.8808 27.7967 89.8465 27.77 89.8084 27.7547C89.6102 27.6747 89.412 27.587 89.1833 27.4994C89.2329 27.6137 89.2786 27.709 89.3243 27.8005C89.4425 28.052 89.5149 28.3112 89.5264 28.5856C89.5416 28.921 89.4234 29.2069 89.2062 29.4623C88.947 29.771 88.6192 29.992 88.28 30.1941C87.8379 30.457 87.4453 30.7848 87.0566 31.1164C86.8241 31.3146 86.6068 31.528 86.4201 31.772C86.0808 32.2141 85.9055 32.721 85.8407 33.2699C85.8217 33.4338 85.8064 33.6015 85.8026 33.7653C85.7797 34.5581 86.0237 35.2632 86.4963 35.8921C86.9651 36.521 87.552 36.9898 88.2915 37.2642C88.3334 37.2795 88.3715 37.2985 88.4134 37.31C88.4515 37.3214 88.482 37.3481 88.5278 37.3557C88.5354 37.3557 88.5278 37.3366 88.5278 37.3481C88.5278 37.3519 88.524 37.3557 88.5201 37.3519C88.3067 37.268 88.1276 37.1308 87.9713 36.9669C87.5825 36.5553 87.2662 36.0903 87.007 35.591C86.7936 35.1832 86.6373 34.7525 86.5611 34.2951C86.5268 34.1046 86.5344 33.914 86.5877 33.7234C86.7745 33.0526 87.1175 32.4809 87.6473 32.0235C88.0361 31.6881 88.4592 31.4023 88.9013 31.1431C89.1643 30.9906 89.332 30.7696 89.4463 30.4913C89.5454 30.2512 89.614 29.9997 89.6979 29.7557C89.7093 29.7176 89.7131 29.649 89.7627 29.6605C89.8122 29.6719 89.7893 29.7329 89.7817 29.7748C89.7245 30.0645 89.6674 30.3541 89.5568 30.6324C89.4501 30.8954 89.2862 31.105 89.0461 31.2651C88.6764 31.509 88.2991 31.7529 87.9522 32.0312C87.3691 32.4923 86.9575 33.0679 86.7745 33.7958C86.7364 33.9445 86.7364 34.0931 86.7593 34.2418C86.8355 34.8249 87.0832 35.3395 87.3767 35.8388C87.6168 36.2466 87.9179 36.6125 88.2343 36.9631C88.3715 37.1156 88.543 37.2109 88.7298 37.2909C88.9699 37.3938 89.2253 37.4396 89.4692 37.5272C89.5149 37.5463 89.5645 37.5501 89.6102 37.5768C89.5721 37.5539 89.5264 37.5501 89.4844 37.531C88.745 37.2833 88.1733 36.8335 87.8226 36.1322C87.5863 35.6596 87.4987 35.1489 87.5787 34.6191C87.6397 34.2342 87.8227 33.9064 88.0818 33.6167C88.3258 33.3423 88.6192 33.1365 88.9432 32.965C89.29 32.7782 89.5187 32.4809 89.6674 32.1188C89.7055 32.0273 89.7284 31.9282 89.7893 31.8482C89.8084 31.8444 89.8198 31.852 89.8275 31.8673C89.8351 31.8901 89.8313 31.913 89.8275 31.9359C89.7398 32.3437 89.5454 32.6867 89.21 32.9421C89.0766 33.045 88.9318 33.1212 88.7946 33.2165C88.421 33.4757 88.1314 33.8073 87.9141 34.2075C87.6778 34.642 87.6816 35.0841 87.8531 35.5377C88.0361 36.0255 88.3181 36.4486 88.6688 36.8259C88.928 37.1042 89.2634 37.2566 89.6216 37.3633C89.7131 37.39 89.8046 37.4205 89.9037 37.4396C89.6255 37.2642 89.4539 37.0089 89.332 36.7154C89.2786 36.5858 89.2329 36.4562 89.1795 36.3228C89.0347 35.9493 89.0728 35.5643 89.1338 35.1832C89.1909 34.8211 89.3663 34.5162 89.6178 34.2494C89.7322 34.1274 89.8465 33.9978 89.9113 33.8378C89.9227 33.8149 89.9304 33.7692 89.9761 33.8035C89.9799 33.9674 89.8961 34.1046 89.816 34.2342C89.7093 34.4057 89.5797 34.5619 89.4806 34.7411C89.2329 35.1946 89.1833 35.6672 89.3472 36.1551C89.4425 36.441 89.5568 36.723 89.736 36.9708C89.7932 37.0508 89.8541 37.1308 89.9418 37.188C89.9723 37.1499 89.9609 37.108 89.9609 37.0698C89.9609 36.0789 89.9609 35.0879 89.9609 34.1008C89.9609 34.0207 89.957 33.9407 89.9761 33.8644C89.9837 33.8263 89.9799 33.792 89.957 33.7615C89.9494 33.6701 89.9609 33.5824 89.9609 33.4947C89.9609 31.6691 89.9609 29.8434 89.9609 28.0177C89.9609 27.9529 89.9494 27.8843 89.9837 27.8233C90.0295 27.7814 90.0485 27.8081 90.0561 27.8538C90.0676 27.9034 90.06 27.9529 90.06 28.0025C90.06 31.0135 90.06 34.0245 90.06 37.0355C90.06 37.0775 90.0561 37.1232 90.0638 37.1651C90.1171 37.0927 90.1286 37.0051 90.1514 36.925C90.2658 36.5248 90.3039 36.1208 90.3268 35.7054C90.3611 35.107 90.2391 34.5353 90.1247 33.9597C90.1095 33.8835 90.1019 33.8073 90.0904 33.7349C90.0828 33.6929 90.079 33.6472 90.1171 33.6167C90.1591 33.6319 90.1629 33.6739 90.1705 33.7044C90.2353 33.9521 90.3115 34.196 90.3877 34.44C90.4983 34.7982 90.5516 35.1641 90.5745 35.5377C90.5897 35.7702 90.544 36.0027 90.5288 36.2313C90.5211 36.3838 90.4983 36.5362 90.4754 36.6849C90.4411 36.9403 90.3382 37.1689 90.1857 37.3519C90.5288 37.047 90.6926 36.6277 90.7841 36.1665C90.8604 35.7663 90.9023 35.3661 90.9213 34.9583C90.9442 34.5391 90.8565 34.1389 90.7498 33.7387C90.6774 33.4604 90.5516 33.2089 90.3954 32.9764C90.2162 32.7096 90.1362 32.4199 90.1438 32.0998C90.1476 31.9625 90.1438 31.8253 90.1438 31.6919C90.1438 31.65 90.14 31.6043 90.1781 31.5662C90.2238 31.5928 90.2162 31.6348 90.22 31.6691C90.2391 31.8558 90.2543 32.0464 90.281 32.2332C90.3039 32.3894 90.3458 32.5381 90.4335 32.6715C90.7651 33.1822 90.9709 33.7463 91.089 34.3409C91.1576 34.6725 91.1424 35.0079 91.1195 35.3433C91.0967 35.6977 91.0395 36.0484 90.9556 36.3952C90.9023 36.6125 90.8184 36.8183 90.7079 37.0127C90.6888 37.066 90.6393 37.1003 90.6317 37.1575C90.6393 37.1041 90.685 37.0737 90.7041 37.0241C90.9366 36.6201 91.0547 36.1818 91.1386 35.7282C91.2034 35.3623 91.272 34.9964 91.3101 34.6267C91.3482 34.2494 91.3482 33.8721 91.2834 33.4947C91.1996 33.0145 91.0852 32.5457 90.8832 32.0998C90.7651 31.8444 90.6507 31.5852 90.5021 31.3451C90.3039 31.0211 90.2124 30.6705 90.1857 30.297C90.1705 30.1102 90.1324 29.9234 90.1514 29.7329C90.159 29.71 90.1667 29.6871 90.1972 29.6909C90.2353 29.7557 90.2315 29.832 90.2429 29.9044C90.2734 30.1331 90.3115 30.3579 90.3458 30.5828C90.3801 30.781 90.4754 30.9525 90.5745 31.1202C90.7917 31.5052 90.9938 31.8978 91.1729 32.3018C91.3406 32.6829 91.4359 33.0793 91.4816 33.4947C91.5083 33.7387 91.5312 33.9826 91.5388 34.2303C91.554 34.8021 91.4587 35.3623 91.3063 35.9112C91.2377 36.1551 91.1843 36.4028 91.0928 36.6392C91.0776 36.6773 91.0624 36.7192 91.0319 36.7497C91.2987 36.4105 91.3825 36.0027 91.4549 35.591C91.5273 35.1756 91.5883 34.7563 91.615 34.3371C91.6455 33.8568 91.6531 33.3766 91.6226 32.8925C91.5921 32.4009 91.5159 31.9168 91.3825 31.4404C91.291 31.1164 91.1462 30.8115 90.9785 30.5218C90.8108 30.2322 90.6126 29.9577 90.4716 29.6528C90.3191 29.3289 90.2696 28.982 90.2886 28.6237C90.2924 28.6047 90.3001 28.5856 90.3039 28.5666C90.3077 28.5399 90.3039 28.4942 90.342 28.498C90.3763 28.5018 90.3725 28.5437 90.3763 28.5742C90.4106 28.9134 90.5059 29.2374 90.6393 29.5537C90.6812 29.6528 90.7422 29.7405 90.7994 29.8282C90.9785 30.095 91.1538 30.3656 91.3063 30.6514C91.4549 30.9297 91.5731 31.2231 91.6531 31.5319C91.7751 31.9892 91.8856 32.4466 91.939 32.9192C91.9657 33.1365 91.9771 33.3537 91.9962 33.5748C92.0152 33.8416 92.019 34.1084 92.0076 34.3714C91.9809 35.1336 91.8704 35.8807 91.5807 36.5896C91.474 36.8526 91.3139 37.0851 91.1271 37.3023C91.0395 37.4014 90.9556 37.5043 90.8222 37.592C91.5769 37.4472 92.263 37.2071 92.888 36.7992C93.3568 36.4905 93.7227 36.0827 93.9971 35.591C94.2373 35.1565 94.3821 34.6915 94.4278 34.1999C94.4964 33.4642 94.3669 32.7591 94.0276 32.0959C93.8561 31.7605 93.6389 31.4594 93.3721 31.1965C93.0977 30.9258 92.7927 30.6895 92.4726 30.4723C92.1753 30.2665 91.8666 30.0759 91.5578 29.8853C91.0585 29.5804 90.7308 29.1421 90.6355 28.5551C90.6164 28.4484 90.6202 28.3417 90.6431 28.2388C90.6583 28.1664 90.6355 28.1206 90.5669 28.0863C90.483 28.052 90.4068 28.0063 90.3268 27.9682C90.2696 27.9224 90.1781 27.9377 90.1514 27.85C90.262 27.8119 90.3687 27.8348 90.4716 27.8843C90.666 27.9148 90.8565 27.9415 91.0509 27.972C90.9175 28.7038 91.2148 29.306 91.8932 29.6909C92.3773 29.9616 92.8575 30.236 93.292 30.5866C94.161 31.2955 94.7023 32.2027 94.8204 33.3194C94.9995 34.9926 94.3592 36.2961 92.949 37.2071C92.4383 37.5387 91.8589 37.7025 91.2606 37.8016C91.0547 37.8359 90.8451 37.8626 90.6355 37.8664C90.5364 37.8893 90.4335 37.855 90.3306 37.8817C90.2963 37.8817 90.2658 37.8817 90.2315 37.8817C90.0866 37.8664 89.938 37.8664 89.7932 37.8817C89.7474 37.8741 89.7093 37.8741 89.6674 37.8741Z" fill="black"/>
<path d="M89.7855 37.8741C89.8198 37.8321 89.8656 37.8512 89.9037 37.855C90.0104 37.8626 90.1209 37.8359 90.2238 37.8741C90.079 37.8741 89.9342 37.8741 89.7855 37.8741Z" fill="#454545"/>
<path d="M90.3268 37.8741C90.4258 37.8398 90.5288 37.8512 90.6317 37.8588C90.6278 37.8626 90.6279 37.8702 90.6279 37.8741C90.5249 37.8741 90.4258 37.8741 90.3268 37.8741Z" fill="#454545"/>
<path d="M90.0599 37.2452C90.0561 37.249 90.0523 37.2566 90.0485 37.2604C90.0409 37.2642 90.0295 37.2757 90.0295 37.2566C90.0295 37.2261 90.0295 37.1956 90.0295 37.1651C90.0295 34.0817 90.0295 30.9983 90.0295 27.911C90.0295 27.8767 90.0638 27.8233 89.9952 27.8081C89.9647 27.8157 89.9494 27.7967 89.938 27.7738C89.8884 27.7014 89.797 27.6785 89.7398 27.6175C89.8389 26.7828 90.1019 25.9939 90.4563 25.2354C90.5631 25.0029 90.6774 24.778 90.8184 24.5608C90.7003 25.0296 90.5821 25.4984 90.464 25.9672C91.0204 24.9305 91.8475 24.153 92.7889 23.4783C92.1677 24.233 91.5464 24.9838 91.1081 25.8681C91.7598 25.0029 92.6403 24.4693 93.6579 24.1377C93.555 24.233 93.4483 24.3321 93.3454 24.4274C92.2668 25.4336 91.3177 26.5503 90.5097 27.789C90.4906 27.8157 90.4754 27.8462 90.4601 27.8767C90.3534 27.8843 90.2467 27.831 90.1362 27.8538C90.0943 27.8767 90.0752 27.911 90.0752 27.9606C90.0752 27.9987 90.0752 28.033 90.0752 28.0711C90.0752 29.8548 90.0752 31.6386 90.0752 33.4223C90.0752 34.5314 90.0752 35.6406 90.0752 36.7497C90.079 36.9136 90.0866 37.0813 90.0599 37.2452Z" fill="#A9CE00"/>
<path d="M89.938 27.7776C89.9571 27.789 89.9761 27.8005 89.9952 27.8119C89.9952 27.85 89.9914 27.892 89.9914 27.9301C89.9914 29.8015 89.9914 31.6729 89.9914 33.5481C89.9914 33.6281 89.9952 33.7082 89.9685 33.7844L89.9723 33.7806C89.8618 34.036 89.6636 34.2303 89.4883 34.44C89.2748 34.6877 89.1948 34.9888 89.1376 35.3052C89.0233 35.9417 89.2176 36.5058 89.5378 37.0394C89.6445 37.2185 89.8008 37.3595 89.9876 37.4662C89.8313 37.4548 89.6864 37.4053 89.5416 37.3633C89.1109 37.2414 88.7641 37.0012 88.4859 36.6582C88.0971 36.1818 87.7998 35.6672 87.7083 35.0498C87.6664 34.7525 87.7503 34.4819 87.8798 34.2265C88.1085 33.773 88.4439 33.4109 88.8746 33.1365C89.0118 33.0488 89.1528 32.965 89.2748 32.8582C89.5797 32.5991 89.7322 32.256 89.8122 31.8749C89.8198 31.8482 89.8122 31.8215 89.8237 31.7987C89.8313 31.7796 89.8465 31.7605 89.8351 31.7339C89.8351 31.7224 89.8198 31.7339 89.8313 31.7301C89.8351 31.7301 89.8389 31.73 89.8389 31.7377C89.8313 31.7796 89.8237 31.8215 89.7932 31.852C89.7474 31.9702 89.7017 32.0883 89.6521 32.2027C89.4959 32.5571 89.2519 32.8316 88.9051 33.0145C88.5316 33.2089 88.2076 33.4642 87.9561 33.8035C87.5825 34.3066 87.4987 34.8668 87.6207 35.4729C87.815 36.4295 88.4096 37.0432 89.271 37.4357C89.3396 37.4662 89.412 37.4929 89.4844 37.5196C89.4921 37.5387 89.4883 37.5463 89.4654 37.5387C89.1795 37.47 88.8937 37.3976 88.6231 37.2757C88.4897 37.2147 88.3639 37.1385 88.261 37.0317C87.6778 36.4219 87.2014 35.7397 86.9003 34.9431C86.8012 34.6801 86.7326 34.4133 86.7097 34.1312C86.6831 33.8035 86.8165 33.5138 86.9422 33.2241C87.19 32.6638 87.5978 32.237 88.0857 31.8863C88.402 31.6576 88.726 31.4328 89.0538 31.2193C89.2786 31.0707 89.4235 30.8725 89.5226 30.6286C89.6407 30.3313 89.7017 30.0187 89.7627 29.7062C89.7665 29.6909 89.7627 29.6757 89.7512 29.6605C89.6903 29.851 89.6293 30.0416 89.5683 30.2322C89.5454 30.297 89.5187 30.3618 89.4997 30.4304C89.3815 30.7772 89.1605 31.0326 88.8365 31.2155C88.3334 31.5052 87.857 31.833 87.4491 32.2446C87.0108 32.6867 86.7288 33.2165 86.5878 33.8225C86.5268 34.0779 86.584 34.3294 86.6449 34.581C86.8241 35.3014 87.1862 35.934 87.6245 36.521C87.8798 36.864 88.1581 37.1842 88.5659 37.3557C88.5583 37.3824 88.543 37.3748 88.5354 37.371C87.1938 36.925 86.2943 36.037 85.8788 34.6801C85.7378 34.2189 85.7645 33.7387 85.814 33.2661C85.875 32.6943 86.0694 32.1722 86.4277 31.7148C86.6869 31.3832 87.0108 31.1164 87.331 30.8458C87.6778 30.5561 88.0475 30.297 88.4363 30.0645C88.7603 29.8701 89.0499 29.6338 89.2786 29.3289C89.4578 29.0925 89.5035 28.8296 89.4997 28.5399C89.4921 28.1778 89.332 27.8691 89.1872 27.5527C89.1757 27.5261 89.1605 27.4994 89.149 27.4727C89.149 27.4689 89.149 27.4651 89.149 27.446C89.4158 27.5604 89.6788 27.6671 89.938 27.7776Z" fill="#FEFCD8"/>
<path d="M90.3268 27.9453C90.3382 27.9491 90.3496 27.9567 90.3649 27.9606C90.464 28.0101 90.5821 28.0368 90.6507 28.113C90.7193 28.1892 90.6431 28.3074 90.6469 28.4103C90.6622 28.7838 90.8108 29.104 91.0395 29.3937C91.1996 29.5995 91.4016 29.7595 91.6265 29.8929C92.2172 30.2436 92.7889 30.6171 93.292 31.0859C93.8523 31.6043 94.222 32.2408 94.3745 32.984C94.6603 34.3904 94.2983 35.6025 93.2234 36.5744C92.8461 36.9174 92.3849 37.1308 91.9085 37.3138C91.5769 37.4434 91.2339 37.5387 90.8832 37.6034C90.8527 37.6111 90.8184 37.6111 90.7536 37.6187C90.9137 37.4853 91.0357 37.3633 91.1538 37.2261C91.4931 36.8297 91.6646 36.3533 91.7827 35.854C91.9657 35.0955 92.0076 34.3256 91.9657 33.5481C91.9237 32.7515 91.7713 31.974 91.5235 31.2193C91.3787 30.7734 91.1424 30.3694 90.8718 29.992C90.5554 29.5461 90.3954 29.0506 90.3382 28.5056C90.3268 28.5475 90.3191 28.578 90.3115 28.6085C90.2696 28.5742 90.2734 28.5246 90.281 28.4789C90.3001 28.3379 90.2963 28.1931 90.3001 28.052C90.2963 28.0177 90.2925 27.9758 90.3268 27.9453Z" fill="#7D4399"/>
<path d="M90.3268 27.9453C90.342 28.1702 90.3077 28.3912 90.3115 28.6161C90.2848 29.1345 90.422 29.6033 90.7079 30.0378C90.9251 30.3656 91.1348 30.7048 91.2796 31.0707C91.4778 31.5623 91.5693 32.0769 91.6226 32.5991C91.7027 33.3766 91.676 34.1541 91.5807 34.9278C91.5312 35.3242 91.4626 35.7168 91.3711 36.1056C91.3063 36.3762 91.1653 36.6087 91.0052 36.8259C91.0014 36.8335 90.9899 36.8335 90.9785 36.8412C91.1729 36.3381 91.3025 35.8197 91.4092 35.2975C91.5121 34.7906 91.5159 34.2837 91.4702 33.7692C91.4321 33.3499 91.3711 32.9383 91.2224 32.5419C91.0585 32.0998 90.8375 31.6843 90.6126 31.2689C90.5059 31.0745 90.3763 30.8915 90.3268 30.6705C90.2543 30.3503 90.2162 30.0225 90.1819 29.6948C90.14 29.5995 90.1667 29.4966 90.1514 29.3975C90.1362 29.3022 90.1362 29.2031 90.14 29.1078C90.1209 29.104 90.1286 29.104 90.1324 29.1078C90.1476 29.2107 90.1324 29.3136 90.1591 29.4165C90.1591 29.5232 90.1705 29.6261 90.1667 29.7329C90.1819 30.0835 90.2162 30.4342 90.2848 30.781C90.3153 30.9335 90.3839 31.0669 90.4563 31.2041C90.7003 31.65 90.9442 32.0959 91.0967 32.58C91.3253 33.308 91.4321 34.0512 91.3139 34.8173C91.2453 35.2747 91.1691 35.7282 91.07 36.178C91.0014 36.4905 90.8756 36.7802 90.7041 37.0508C90.685 37.0546 90.6774 37.0508 90.685 37.0317C90.9556 36.5134 91.0281 35.9493 91.0928 35.3814C91.1805 34.6077 91.0052 33.8835 90.685 33.1898C90.6126 33.0297 90.5249 32.8735 90.4297 32.7286C90.2963 32.5228 90.2467 32.298 90.2277 32.0616C90.2124 31.9054 90.1972 31.7453 90.1743 31.589C90.1705 31.913 90.1362 32.2408 90.2238 32.5609C90.262 32.7096 90.3344 32.8354 90.4182 32.9611C90.8603 33.6472 90.9976 34.4057 90.9366 35.2061C90.9023 35.6482 90.8527 36.0865 90.7269 36.5096C90.6317 36.8412 90.4678 37.1346 90.2048 37.3633C90.1781 37.3862 90.1476 37.4091 90.1171 37.4319C90.1133 37.4357 90.1057 37.4319 90.0866 37.4281C90.2734 37.2109 90.4106 36.9708 90.4449 36.6887C90.4754 36.4295 90.4983 36.1665 90.5288 35.9074C90.5936 35.2861 90.4449 34.6953 90.262 34.1084C90.2124 33.9521 90.1705 33.792 90.1171 33.6319C90.1133 33.7539 90.14 33.8721 90.1629 33.994C90.2238 34.3218 90.3153 34.6496 90.3382 34.985C90.3954 35.7549 90.3611 36.5172 90.0676 37.249C90.0333 37.2223 90.0447 37.1804 90.0447 37.1461C90.0447 34.0703 90.0447 30.9944 90.0447 27.9186C90.0447 27.8881 90.0485 27.8615 90.0485 27.831C90.0904 27.8233 90.1133 27.8538 90.1476 27.8576C90.201 27.8843 90.2658 27.9148 90.3268 27.9453Z" fill="#FEFCD8"/>
<path d="M89.9685 33.7844C89.999 33.8035 89.9876 33.8301 89.9876 33.8568C89.9876 34.985 89.9876 36.117 89.9876 37.2566C89.9266 37.2414 89.8808 37.2032 89.8503 37.1613C89.3892 36.5591 89.0957 35.9112 89.2901 35.1298C89.351 34.8821 89.4768 34.6648 89.6255 34.459C89.7589 34.2723 89.8999 34.0931 89.9532 33.8606C89.9609 33.834 89.9647 33.8073 89.9685 33.7844C89.9685 33.7806 89.9685 33.7844 89.9685 33.7844Z" fill="#FEFCD8"/>
<path d="M90.1629 29.3975C90.1705 29.4966 90.1743 29.5957 90.1819 29.6948C90.1743 29.71 90.1705 29.7214 90.1629 29.7367C90.1324 29.63 90.1476 29.5232 90.1438 29.4127C90.14 29.4089 90.14 29.4013 90.14 29.3975C90.1476 29.3936 90.1552 29.3975 90.1629 29.3975Z" fill="#504F44"/>
<path d="M90.6812 37.0317C90.6888 37.0394 90.6927 37.047 90.7003 37.0508C90.6812 37.0965 90.6507 37.1385 90.6012 37.188C90.6164 37.1194 90.6469 37.0775 90.6812 37.0317Z" fill="#ADAB93"/>
<path d="M89.7894 31.852C89.8046 31.8063 89.816 31.7605 89.8389 31.6881C89.8427 31.772 89.8351 31.8253 89.8084 31.8749C89.8046 31.8635 89.797 31.8596 89.7894 31.852Z" fill="#57564A"/>
<path d="M89.4654 37.5348C89.473 37.5272 89.4768 37.5234 89.4844 37.5158C89.5264 37.531 89.5683 37.5425 89.6102 37.5577C89.5607 37.5653 89.5111 37.5653 89.4654 37.5348Z" fill="#717060"/>
<path d="M90.1629 29.3975C90.1552 29.4013 90.1514 29.4089 90.1438 29.4127C90.1019 29.306 90.1362 29.1993 90.14 29.0926C90.1476 29.1993 90.1552 29.2984 90.1629 29.3975Z" fill="#BBB9A0"/>
</svg>
