<svg id="Layer_1" data-name="Layer 1" xmlns="http://www.w3.org/2000/svg" viewBox="0 0 574.37 142.78"><defs><style>.cls-1{fill:#232323;}.cls-2{fill:#7d4399;}.cls-3{fill:#ffbf00;}</style></defs><title>logo</title><polygon class="cls-1" points="296.29 74.6 296.29 74.6 296.29 74.6 296.3 74.6 296.29 74.6 296.29 74.6"/><path class="cls-1" d="M574.32,91.07V91q-.39-16.2,0-32.39s0,0,0-.07a3.11,3.11,0,0,1-.06-1.63c0-.1,0-.2.08-.31-.05-.57-.15-1.15-.15-1.72,0-9.06,0-18.12,0-27.18,0-1.6-.38-2.21-2.07-2.09a48.76,48.76,0,0,1-6.73,0c-1.67-.11-2,.47-2,2.07.06,6,0,12,0,18V52a19.23,19.23,0,0,0-15.26-8.36c-6.94-.42-12.9,1.92-18.25,6.09l-.37.29c-.22.25-.43.51-.66.74-11.49,11.38-10.56,31,2.08,41C540,99,555.64,100,563.41,88.4v7.65c3.65,0,7.32.48,11-.27a2,2,0,0,1-.31.45.6.6,0,0,0,.31-.45A13.08,13.08,0,0,1,574.32,91.07Zm-14.48-8.79c-5.72,6.54-16,7.1-22.9,1.19-4.08-3.49-5.65-8.08-5.62-13.33,0-6.93,2.8-12.31,9.13-15.32s12.68-2.58,18.14,2.19C565.2,62.78,565.73,75.55,559.84,82.28Z"/><path class="cls-1" d="M512.41,61.1c-.81-7.51-4.43-13.48-11.81-16.22s-14.37-1.55-20.44,3.78a25,25,0,0,0-4.55,5.8l-.12-.05V50.06c0-5.68,0-5.68-5.62-5.68-4.91,0-4.91,0-5.17,4.76a2.14,2.14,0,0,1-.13.48v0c.05,3.38.15,6.76.14,10.14,0,9.44-.09,18.87-.14,28.3v.09c.05,2,.19,3.92.12,5.87-.05,1.53.25,2.29,2,2.15a48.76,48.76,0,0,1,6.73,0c1.61.09,2.09-.39,2.08-2-.09-8.22.17-16.46-.12-24.67-.19-5.57,2.3-9.6,6.18-13a13.24,13.24,0,0,1,13.49-2.81c5,1.72,6.75,6,6.84,10.83.21,10.47.09,20.94.1,31.41h0c3.22.45,6.46.09,9.69.22,1.06,0,1.2-.55,1.18-1.41C512.68,83.53,513.6,72.28,512.41,61.1Z"/><path class="cls-1" d="M453.55,44.42h-1a13.5,13.5,0,0,1,1.44.48C453.88,44.73,453.9,44.42,453.55,44.42Z"/><path class="cls-1" d="M451.37,44.41c-1.44,0-2.87-.07-4.31-.06s-2.68.18-4,.25v6.95l-.15.08-.15,0a20.31,20.31,0,0,0-15.19-8.13h-3.48A27.09,27.09,0,0,0,404.18,55.8h0c-.35.74-.69,1.48-1.05,2.22-4.72,9.6-3,22.72,4,30.59C413,95.28,424.55,100,436,95l.74-.44,1.56-.94.2-.12a19.4,19.4,0,0,0,4.48-5.39l.11,0c0,2.55.08,4.44,0,6.33-.08,1.32.39,1.71,1.68,1.66a67.13,67.13,0,0,1,7,0c1.76.11,2.23-.5,2.21-2.22-.06-5.18.05-10.36.1-15.54,0-.11,0-.23,0-.34-.05-5.29-.17-10.57-.14-15.86,0-5.77-.26-11.55.17-17.33A15.31,15.31,0,0,0,451.37,44.41ZM439.32,82.47c-5.76,6.37-15.94,6.82-22.75,1C412.86,80.3,411.05,76,411,67.65c0-4.55,2.89-10,9.39-12.94s12.71-2.39,18.1,2.47C445,63.07,445.3,75.85,439.32,82.47Z"/><path class="cls-1" d="M391.17,26.19c-1.49-1.68-5-.26-7.62-.57-2.3-.28-2.86.55-2.84,2.82.08,11.06,0,22.11-.08,33.17v.11l0,34.17a61.28,61.28,0,0,0,10.92.12q0-7.71.08-15.42V39.13l-.09-5.48C391.52,31.09,392.46,27.65,391.17,26.19Z"/><path class="cls-1" d="M371.71,67.61c-1.55-13.78-10.1-22.52-23.57-24.08l-4,0-6.34,1.15c-.25.09-.49.2-.73.3a28.94,28.94,0,0,0-13.32,10.34c-1.77,2.52-2.49,5.5-3.57,8.31v.08a4.13,4.13,0,0,1-.46,2.39,28.55,28.55,0,0,0,3.48,18.22,24,24,0,0,0,3,4.1l2.81,2.64a28.19,28.19,0,0,0,12.6,5.57,1.9,1.9,0,0,1,1.53.33l2,.18h3.47c6.69-.3,12.85-2.08,18-6.62h0l.81-.77.21-.2c.44-.93-.31-1.32-.83-1.81L362,83.19l-.2.15c-7.12,5.49-14.89,6-23,2.51-4.29-1.85-6.75-5.48-8-9.93-.39-1.36-.13-1.88,1.45-1.86,8.23.1,16.47.09,24.71.12h.22c4.15,0,8.31-.15,12.46,0,1.65,0,2.23-.53,2.12-2S371.71,69.1,371.71,67.61Zm-13.22-1.44c-8.55,0-17.11-.06-25.66.07-2.33,0-2.4-.68-1.71-2.55,2.52-6.79,9.41-11.54,16.15-11,7.75.63,13.41,5.74,14.65,13.26A9.44,9.44,0,0,1,358.49,66.17Z"/><path class="cls-1" d="M131.68,39.32q0-12.66,0-25.32c0-.42,0-.84.06-1.26,0-.14,0-.29,0-.43a27.11,27.11,0,0,1,0-3.82c.19-1.55-.44-2-1.82-1.85h-.21c-1.27-.1-1.63.47-1.61,1.9.1,6.89,0,13.78,0,20.67,0,3.87-.05,7.74-.08,11.62v.49c0,.41.08.82.08,1.24v61.14c0,.41-.05.82-.08,1.22h0c0,5.27.08,10.55.08,15.82,0,4.6-.05,9.2-.08,13.81,0,0,0,0,0,.05.13.29-.05.68.28.91,3.34-.1,3.33-.1,3.34-3.41q0-9.23.08-18.45v-1.25c0-6.56-.06-13.13-.07-19.69,0-2.48.05-5,.07-7.44a6.14,6.14,0,0,1,0-2.18c0-3.26-.08-6.52-.08-9.78q0-11.47.08-23a12.53,12.53,0,0,1,0-3.12C131.74,44.6,131.69,42,131.68,39.32Z"/><path class="cls-1" d="M271.63,83.64l0-.56c-.05-.9-.16-1.81-.16-2.72,0-11.28,0-22.57,0-33.86,0-1.55-.29-2.27-2-2.16-2.4.15-4.82.09-7.22,0-1.2,0-1.6.37-1.55,1.57.08,1.83,0,3.67,0,6l-.09.06-.1,0c-3.29-5.09-7.84-7.06-12.79-8.38l-.41,0a27.19,27.19,0,0,0-22.67,8.42l-.31.3a25.67,25.67,0,0,0-6.16,14.76l0,5a21.21,21.21,0,0,0,.22,4.16c2.35,9.45,7.83,16.14,17.21,19.43a26.07,26.07,0,0,0,15.63.41l.35-.17c3.53-1.7,6.85-3.68,9.07-7.83l.08,0v7.91c3.65,0,7.32.5,11-.29a5.59,5.59,0,0,1-.33.47c.22-.07.22-.31.33-.47A81.73,81.73,0,0,1,271.63,83.64ZM257,82.47c-5.79,6.45-16.11,6.82-22.93.83-3.58-3.13-5.32-7.4-5.43-15.82,0-4.29,2.83-9.67,9.16-12.67S250.49,52.24,256,57C262.64,62.88,263.07,75.72,257,82.47Z"/><path class="cls-1" d="M308,25.61a29.11,29.11,0,0,0-13.26,0l-.26.14c-1.55.86-3.3,1.3-4.71,2.57-3.12,2.8-4.11,6.43-4.61,10.34-.15,1.83.54,3.72-.4,5.49h0a2,2,0,0,1-1,.25,9.37,9.37,0,0,1-1.59,0h0a5.69,5.69,0,0,1-1.48,0,3.72,3.72,0,0,0-1.88.55h0a1.19,1.19,0,0,1,.13,1c0,.09-.06.18-.1.28a31,31,0,0,1,0,6.74,7.42,7.42,0,0,0,3.93.29,4.12,4.12,0,0,1,.78,0,1.56,1.56,0,0,1,1.37.65,3.33,3.33,0,0,1,.35,1.81c-.1,12.72,0,25.44-.1,38.17,0,2,.57,2.56,2.48,2.41a39.27,39.27,0,0,1,6.23,0c1.71.12,2-.54,2-2.11,0-6.34,0-12.68,0-19v-.93c0-6.07,0-12.14-.05-18.21,0-2.14.41-2.9,2.7-2.77,3.56.2,7.15,0,10.72,0a.94.94,0,0,1,.09-.47V48.12a3.66,3.66,0,0,1-.07-1c.43-2.33-.6-2.87-2.81-2.82-3.37.08-6.76.38-10.12-.2h0c-1.5-4.71.32-8.95,4.31-10h0a7.94,7.94,0,0,1,6.52.27c2.57,1.28,3.31.24,4.31-1.88C313.83,27.28,313.72,27.13,308,25.61Z"/><polygon class="cls-1" points="284.73 44.13 284.73 44.13 284.73 44.13 284.73 44.13"/><path class="cls-1" d="M278.76,44.89a3.2,3.2,0,0,1,.6-.41A1.74,1.74,0,0,0,278.76,44.89Z"/><path class="cls-1" d="M200.32,60.57l-.6-.32-.4-.21c-4.52-2.23-9.23-4-13.91-5.86a34.06,34.06,0,0,1-4.5-2.1c-4.18-2.45-6-6.19-5-10.16.88-3.55,4.62-6.42,8.93-6.79a18.17,18.17,0,0,1,2.33,0h.15a7.32,7.32,0,0,1,4.14.59c3.2,1.28,6,3,7.77,6.24.53,1,1.13,2.91,3.07,1.84s3.92-2.39,5.93-3.48c.89-.48,1-.9.49-1.72a27.38,27.38,0,0,0-6.52-8c-6-4.81-12.89-6.17-20.38-5.08l-.21,0q-15.87,3.59-16.84,18v.07c0,6.28,2.68,11.17,7.56,15,6,3.43,12.62,5.63,19,8.31,3.38,1.42,6.62,3.23,7.92,7,2.45,7.15-2.55,13.29-10.93,13.47-7.16,1-13.9-3.49-16.48-9.27-.88-2-1.73-2.32-3.49-1.12A27.33,27.33,0,0,1,165,78.76c-3.07,1.55-3.26,2.63-1.32,5.65C170.63,95.2,180.5,99.09,193,97a5.07,5.07,0,0,1,.68,0h.06c.46-.15.92-.32,1.38-.46,6.38-1.92,11.67-5.27,14.54-11.55a34.36,34.36,0,0,0,1.53-4.93c.05-.16.09-.31.13-.46-.13-4.13-.61-8.16-3-11.74C206.26,64.72,203.3,62.64,200.32,60.57Z"/><path class="cls-2" d="M93.6,105c0-1.26-.45-2.48-.44-3.74a5.4,5.4,0,0,1,0-.56h0c-.78-3-1.33-6.12-2.39-9.09C88,83.77,83.62,76.9,78.72,70.3c-2.19-2.94-4.41-5.86-6.62-8.79h0a.25.25,0,0,0,0-.08H72a3.38,3.38,0,0,1-.44-.4c-5-6.38-9.88-12.87-14.27-19.69A2.53,2.53,0,0,0,54.84,40c-5.34.05-10.68.06-16,0a2.54,2.54,0,0,0-2.44,1.33q-2.41,3.73-5,7.34C26.92,54.92,22.27,61,17.47,66.91a3.76,3.76,0,0,0-.25.31h0c-.58.73-1.17,1.45-1.74,2.19A91.09,91.09,0,0,0,4.07,88.3a48.78,48.78,0,0,0-4,22.91c0,.17,0,.33,0,.5h0a10.3,10.3,0,0,1,.29,1.19A27.92,27.92,0,0,0,5,125.31c4.52,6.78,11,11,18.44,13.92,4,1.58,8.19,2.28,12.35,3.17l.34,0c5.33.42,10.68.39,16,.29a53.78,53.78,0,0,0,22.81-5.5,40.66,40.66,0,0,0,12.52-9.81h0l.21-.3A29.6,29.6,0,0,0,92.94,115c.23-1.33.44-2.67.65-4h0C93.59,109,93.6,107,93.6,105ZM87.09,119.1a9.86,9.86,0,0,1-1.79,3.23c-4.12,6.43-10.21,10.3-17.16,12.92a42.84,42.84,0,0,1-14.56,2.85h0c-8.39.59-16.76.51-24.92-1.8C20.9,134.1,14,130.41,9.21,123.6a24.6,24.6,0,0,1-4.53-12.75C4,100.76,6.91,91.6,11.89,83a73.55,73.55,0,0,1,7.42-10.88c2.36-3.63,5.2-6.9,7.84-10.34,4-5.18,7.91-10.38,11.52-15.82a2.62,2.62,0,0,1,2.62-1.36c1.71.11,3.44.07,5.16.09h0c2.43,0,5.09-.62,7.24.16S56.62,48.4,58,50.28C64,58.1,69.92,65.89,75.73,73.79c4.94,6.72,9.42,13.74,11.68,21.9C89.56,103.51,90.28,111.34,87.09,119.1Z"/><path class="cls-2" d="M28.37,8.57c3.95,5,5.62,11,6.67,17.16a1.49,1.49,0,0,0,1.42.84c6.8-.06,13.61-.08,20.41-.11h.27a45.57,45.57,0,0,1,5-15.55c1.41-2.66,3.72-4.76,4.73-7.66,0-.58,0-1.16,0-1.74h0L65.71.37h0L65.26.14,65,0,62.16,0h0a10.28,10.28,0,0,0-4.63,2.73,9.47,9.47,0,0,1-4.21,2.81c-1.68.46-3.34.57-4.56-.93a2.83,2.83,0,0,1-.2-.28c-.87-.7-1.39-1.79-2.5-2.22L44,2.16h0c-1.33.29-1.89,1.52-2.78,2.33-2.5,2.24-4.66,2.62-7.49.94C32.43,4.67,31.11,4,29.78,3.36l-.11,0h0c-2.94.25-3.71,1.86-2,4.26C27.87,7.91,28.12,8.24,28.37,8.57ZM45.56,7.8c3.52,3.4,7.41,3.14,11.45,1l1.23-.67c-.19,1.5-1,2.36-1.4,3.37a58.21,58.21,0,0,0-3.18,9.41A1.34,1.34,0,0,1,52.1,22.2q-6-.06-11.91,0c-.85,0-1.32-.25-1.51-1.1a46.87,46.87,0,0,0-3-9.09c-.43-.95-.13-1,.78-1A10.13,10.13,0,0,0,44,8.06C44.47,7.62,44.8,7.07,45.56,7.8Z"/><path class="cls-2" d="M58.53,31.12c-7.37,0-14.74,0-22.11,0-1.82,0-2.89.85-2.83,2.25.06,1.67,1.21,2.27,2.64,2.28q10.6.06,21.22,0c1.15,0,2.28-.31,2.61-1.69h0a.22.22,0,0,0,0-.08c.33-1.26-.39-2-1.26-2.56Z"/><path class="cls-3" d="M53.51,99.52C52.1,99,50,99.44,49.4,98s-.13-3.15-.13-4.74a4.47,4.47,0,0,1,0-3h0c-.21-.9,0-1.34,1-1,2.32.76,3.59,2.52,4.6,4.61s2.23,2.64,3.76,2,1.9-2.19,1.26-4.13c-.11-.33-.28-.65-.42-1-1.75-3.91-5-5.89-9-6.76-1-.23-1.36-.63-1.34-1.65,0-1.48,0-3-.14-4.44a2.08,2.08,0,0,0-2.32-2.16c-1.45.08-2,1.1-2,2.44s-.06,2.61,0,3.92c0,1.05-.2,1.63-1.4,1.76A11.73,11.73,0,0,0,37.8,86.3C33,89.71,32.62,98.41,39.64,101c1.27.47,2.59.84,3.89,1.23.67.2,1.16.4,1.15,1.28,0,2.91,0,5.82,0,8.72,0,.77-.26.89-1,.67a7,7,0,0,1-4.48-3.78c-.65-1.41-1.37-2.81-3.12-3.16h0l-.29.05c-2.18.44-2.88,1.9-1.93,4.38a11.24,11.24,0,0,0,8.54,7.3c2,.42,2.52,1.27,2.25,3.06-.06.41,0,.83,0,1.25a2.62,2.62,0,0,0,1.68,2.88l.11.05c2.31-.38,2.85-1,2.7-4.26-.08-1.81.39-2.6,2.26-2.93a10.55,10.55,0,0,0,7.48-4.66C62.08,108,59.49,101.69,53.51,99.52Zm-4.46,13v-3.9c0-1.24,0-2.48,0-3.72,0-.74.26-1.07,1.06-1a5.35,5.35,0,0,1,4.54,4.75A5.23,5.23,0,0,1,50,113.44C49.16,113.51,49.05,113.11,49.05,112.51Zm-6.18-16c-2.06-.83-3.21-2.18-3.13-3.67.09-1.71,2-3.72,3.9-4.17.85-.21,1,.15,1,.89,0,1.12,0,2.25,0,3.37v2.31C44.65,97.21,44.61,97.24,42.87,96.53Z"/><path class="cls-1" d="M571.78,123.92c-.77-.34-1.56-.65-2.29-1a1.36,1.36,0,0,1-.61-1.91,1.48,1.48,0,0,1,1.88-.82,7.74,7.74,0,0,1,1.66,1,.78.78,0,0,0,1,0c.47-.41.29-.85,0-1.22a4,4,0,0,0-4-1.44,3.12,3.12,0,0,0-2.7,2.52,3.15,3.15,0,0,0,1.94,3.39,16.33,16.33,0,0,0,1.55.65c.94.41,2,.75,2.16,2a1.51,1.51,0,0,1-.93,1.57,2.29,2.29,0,0,1-3-.63c-1-1.09-1.72-1.13-1.94.54a4.15,4.15,0,0,0,.24.34,9.83,9.83,0,0,0,2.55,1.71l.1.07c.64-.08,1.3-.1,1.93-.23,1.58-.34,2.82-1.17,3-2.86C574.59,125.57,573.35,124.59,571.78,123.92Z"/><polygon class="cls-1" points="415.42 118.88 415.42 118.88 415.42 118.88 415.42 118.88"/><path class="cls-1" d="M415.42,118.88v6.88a36.15,36.15,0,0,1-5.36-5.7c-.46-.56-.95-1.29-1.82-1s-.65,1.21-.67,1.89c-.07,2.88-.08,5.78-.11,8.67h0a.86.86,0,0,1,0,.17,2.29,2.29,0,0,1,.07.36,2.29,2.29,0,0,0,.5.05h.12c.91,0,1.16-.74,1.14-1.79q-.07-2.25,0-4.5a2.17,2.17,0,0,1,0-.26c0-1.16.41-1,.82-.33a1,1,0,0,1,.1.18h0l5.19,6.55c1.45.4,1.78-.37,1.76-1.62,0-2.6,0-5.19,0-7.79C417.22,119.32,416.83,118.59,415.42,118.88Z"/><path class="cls-1" d="M439.37,124.13c-.56,0-1.18.16-1.15.9s.61.56,1,.66,1.52-.31,1.61.61a2,2,0,0,1-1.45,1.87c-2,.77-3.91.48-5.14-1.48a3.71,3.71,0,0,1,.12-4.68c1.29-1.53,2.83-2.41,4.91-1.51.57.25,1.29.7,1.64-.22s-.59-1-1.09-1.26c-1.87-1-3.64-.28-5.42.23l-.5.14c-3.95,3.71-3.19,8.45,1.72,10.81l3.28.07h0c1.22-.2,1.84-1.32,2.86-1.83l.32-.61c.58-1,1.26-2.13.43-3.25C441.86,123.64,440.47,124.1,439.37,124.13Z"/><path class="cls-1" d="M314.93,123.94c1.56-1.91.08-4.51-2.45-5-1.54-.31-3.13-.38-4.7-.55-.65,3.42-.15,6.87-.3,10.3-.06,1.28.62,1.63,1.76,1.43h0c.29-1.26-.83-3.11.74-3.72,2-.76,2.39,1.48,3.34,2.59a4.05,4.05,0,0,1,.45,1c.74.13,1.54.61,2.09-.37h0C314.21,127.93,312.84,126.52,314.93,123.94Zm-3.93.62c-1.57.13-2-.69-1.74-1.9-.14-1.42.15-2.3,1.73-2.23s2.66.52,2.58,2.17C313.5,124.07,312.3,124.45,311,124.56Z"/><path class="cls-1" d="M331.52,118.37v0c-2.56.65-1.15,2.67-1.44,4.1a1.15,1.15,0,0,1-.12.37c0,2.42.05,4.83.08,7.24,1.13.23,1.83-.1,1.78-1.39,0-.15,0-.31,0-.46,0-.31,0-.61,0-.91C331.8,124.32,332.1,121.33,331.52,118.37Z"/><path class="cls-1" d="M253,124c1.41-1.47.51-3.48-1.12-4.59-1.33-.91-3-.81-4.62-.89-1.43-.08-2,.62-2,2,.05,2.62,0,5.24,0,7.86,0,.72-.13,1.64.95,1.72s1-.81,1.12-1.55-.46-2,1-2.27,1.69.87,2.34,1.64,1,2.6,3.2,2.09a6.84,6.84,0,0,0-.59-1.11C252,127.3,251,126,253,124Zm-3.76.59c-1.47.14-2-.53-1.86-1.88-.07-1.26.05-2.27,1.68-2.21,1.35.06,2.43.46,2.5,2S250.58,124.41,249.24,124.54Z"/><path class="cls-1" d="M227.27,120.46c.65,0,1.31,0,2,0s1.65,0,1.62-1c0-.86-.82-.94-1.46-.91-1.85.07-3.74-.39-5.53.41v.54c0,3.55,0,7.1,0,10.64l.08.05v0a22.09,22.09,0,0,0,3.54.08c1.18-.13,3.29.8,3.32-.77s-2.08-.64-3.23-.88c-.8-.17-1.77.07-1.86-1.16,0-.74-.18-1.63.65-2a7.83,7.83,0,0,1,2.19-.25c.57-.06,1.19-.12,1.09-.9-.06-.53-.51-.74-1-.77a12.91,12.91,0,0,0-1.39,0c-1,0-1.56-.4-1.55-1.48S226.24,120.44,227.27,120.46Z"/><path class="cls-1" d="M523.91,118.43a6,6,0,0,0-5.76,6,5.5,5.5,0,0,0,5.82,5.78,5.76,5.76,0,0,0,6-5.7A6.24,6.24,0,0,0,523.91,118.43Zm0,10.09a4.19,4.19,0,0,1,.18-8.37,4.53,4.53,0,0,1,4,4.34A4.13,4.13,0,0,1,523.9,128.52Z"/><path class="cls-1" d="M550.37,119.07c-4-2-6.2-.63-6.2,3.8v1.39h0c0,1.49,0,3,0,4.46,0,.67.12,1.35,1,1.37s1.12-.64,1-1.32c-.3-2.17.76-2.63,2.71-2.67A3.55,3.55,0,0,0,552.4,123,3.49,3.49,0,0,0,550.37,119.07Zm-2.58,5.48c-1.77,0-1.46-1.22-1.52-2.3-.09-1.51.69-2,1.7-1.78,1.62.1,2.62.68,2.55,2C550.45,124.05,549.26,124.52,547.79,124.55Z"/><path class="cls-1" d="M478.12,123.14c-.89-.34-1.74-1-1.19-2.13a1.8,1.8,0,0,1,2.42-.75,5.39,5.39,0,0,1,1,.53c.49.32,1.1.62,1.49.1.55-.71-.17-1.2-.63-1.56-1.89-1.5-3.79-1.08-5.67.08a1.89,1.89,0,0,1-.09.21,5,5,0,0,0-.33.91,7.66,7.66,0,0,0-.21,1.73,5.76,5.76,0,0,0,3.39,2.71c1.07.38,2.15.78,2.29,2.13a1.43,1.43,0,0,1-1,1.5,2.52,2.52,0,0,1-3-.71c-.47-.46-.92-1.13-1.56-.41s0,1.21.44,1.68c1.77,2.07,4.59,1.77,7-.71h0c0-.1.07-.19.1-.28l.15-.44.15-.41C482.34,124.68,480.22,124,478.12,123.14Z"/><path class="cls-1" d="M502.88,118.5c-1.77,0-3.55-.06-5.32,0-.65,0-1.41,0-1.52.88s.62,1.12,1.29,1.1c1.59,0,1.83.88,1.76,2.16a13.78,13.78,0,0,0,0,3.08c.24,1.45-.82,4.17.74,4.11,2.07-.07.47-2.75,1-4.18.49-2-1.54-5.19,2.61-5.44.17,0,.45-.61.42-.9A1,1,0,0,0,502.88,118.5Z"/><path class="cls-1" d="M352.91,119.31a12.27,12.27,0,0,0-3.49-.8c-2.21-.44-3.38.23-3,2.73a23.53,23.53,0,0,1,0,3.36c0,1.3-.05,2.61,0,3.91,0,.75-.41,1.93.83,2s1.29-1,1.2-1.81c-.22-2,.58-2.58,2.49-2.62a3.68,3.68,0,0,0,3.65-3A3.36,3.36,0,0,0,352.91,119.31Zm-2.85,5.23c-1.54.07-1.6-.92-1.55-2.09-.15-1.29.28-2.08,1.83-2s2.42.67,2.34,2.17S351.39,124.48,350.06,124.54Z"/><path class="cls-1" d="M271.84,128.53c-1-.19-1.81-.28-1.78-1.57,0-1.09.36-1.75,1.59-1.82.75,0,2,.4,2.08-.74.07-1.46-1.34-.89-2.14-1-1-.08-1.53-.45-1.52-1.52s.6-1.34,1.58-1.5c1.22-.2,3.48.82,3.39-1.08-.07-1.62-2.34-.62-3.61-.89-.26,0-.56,0-.83,0-1.85-.24-2.44.58-2.37,2.39.11,3.07,0,6.15,0,9.23h7.29C275.26,127.31,273.14,128.77,271.84,128.53Z"/><path class="cls-1" d="M208.49,119c-1.4-.09-1,1.37-.9,2.15.21,2.16-.74,2.67-2.75,2.72-2.26,0-3-.78-2.83-2.94.08-.74.34-2-.88-2s-.81,1.27-.83,2c-.05,2.42,0,4.85,0,7.27,0,.69-.25,1.72.82,1.76s1-1,.9-1.68c-.33-2.46.88-2.85,3.06-2.93,2.68-.1,2.54,1.43,2.49,3.19,0,.62-.08,1.46.86,1.44s.85-.83.86-1.46c0-1.31,0-2.61,0-3.92,0-1.12.07-2.24,0-3.36C209.22,120.47,209.77,119.06,208.49,119Z"/><path class="cls-1" d="M185.26,118.65c-1-.22-1.16.67-1.4,1.39-.6,1.82-1.22,3.63-1.84,5.45a19.33,19.33,0,0,1-2.52-5.07c-.25-.69-.37-1.6-1.26-1.67-1.17-.1-1.16,1.06-1.45,1.76-.7,1.72-1.29,3.49-2.17,5.92-.9-2.67-1.54-4.61-2.21-6.54-.22-.61-.47-1.41-1.29-1.19-1.11.3-.58,1.18-.38,1.83.86,2.77,1.76,5.52,2.66,8.27.2.63.41,1.33,1.25,1.28.67-.05.81-.67,1-1.2.76-2.08,1.53-4.15,2.52-6.84.94,2.58,1.67,4.57,2.4,6.56.22.61.32,1.37,1.13,1.42s1-.69,1.19-1.31c.91-2.75,1.86-5.49,2.71-8.25C185.79,119.87,186.5,118.92,185.26,118.65Z"/><path class="cls-1" d="M373.77,118.89c-1-.17-2-.31-3-.42-1.4-.15-2,.43-2,1.9.07,2.32,0,4.63-.06,6.95h0v.17c0,.67,0,1.34.07,2,0,.2,0,.4,0,.6h0a2.83,2.83,0,0,0,.7,0,1.07,1.07,0,0,0,.76-.37,1.78,1.78,0,0,0,.3-1.08c0-.78-.32-1.68.44-2.33a21.51,21.51,0,0,0,3-.41,3.3,3.3,0,0,0,2.74-3.63A3.42,3.42,0,0,0,373.77,118.89Zm-3.21,3.8c0-1.33-.09-2.63,1.63-2.44,1.28.15,2.73.29,2.79,2.1s-1.24,2.06-2.61,2.21C370.78,124.73,370.44,123.82,370.56,122.69Z"/><path class="cls-1" d="M391.21,120.58c0,2.6,0,5.19,0,7.79,0,1.24.33,2,1.74,1.75V130c0-3.7,0-7.39,0-11.09v-.07C391.52,118.57,391.19,119.35,391.21,120.58Z"/></svg>