<svg id="Layer_1" data-name="Layer 1" xmlns="http://www.w3.org/2000/svg" viewBox="0 0 614.37 206.43"><defs><style>.cls-1{fill:#fefefe;}.cls-2{fill:#0880a2;}.cls-3{fill:#fff;}</style></defs><title>logo</title><polygon class="cls-1" points="336.29 102.51 336.29 102.51 336.29 102.52 336.3 102.52 336.29 102.51 336.29 102.51"/><path class="cls-1" d="M614.32,119v-.08q-.39-16.18,0-32.39s0,0,0-.07a3.08,3.08,0,0,1-.06-1.62c0-.11,0-.21.08-.31-.05-.58-.15-1.15-.15-1.73,0-9.06,0-18.12,0-27.18,0-1.59-.38-2.2-2.07-2.09a50.38,50.38,0,0,1-6.73,0c-1.67-.12-2,.46-2,2.06.06,6,0,12,0,18v6.34a19.19,19.19,0,0,0-15.26-8.35c-6.94-.43-12.9,1.91-18.25,6.08l-.37.29c-.22.25-.43.51-.66.74-11.49,11.39-10.56,31,2.08,41,9.14,7.23,24.78,8.22,32.55-3.33V124c3.65,0,7.32.49,11-.27a1.8,1.8,0,0,1-.31.45.58.58,0,0,0,.31-.45A13,13,0,0,1,614.32,119Zm-14.48-8.8c-5.72,6.55-16,7.1-22.9,1.2-4.08-3.5-5.65-8.08-5.62-13.34,0-6.93,2.8-12.31,9.13-15.32s12.68-2.58,18.14,2.19C605.2,90.7,605.73,103.46,599.84,110.19Z"/><path class="cls-1" d="M552.41,89c-.81-7.5-4.43-13.48-11.81-16.21s-14.37-1.55-20.44,3.77a25.3,25.3,0,0,0-4.55,5.81l-.12-.06V78c0-5.68,0-5.68-5.62-5.68-4.91,0-4.91,0-5.17,4.75a2,2,0,0,1-.13.48v0c.05,3.38.15,6.77.14,10.15,0,9.43-.09,18.86-.14,28.29v.09c.05,2,.19,3.92.12,5.87-.05,1.53.25,2.29,2,2.16a50.38,50.38,0,0,1,6.73,0c1.61.1,2.09-.39,2.08-2-.09-8.23.17-16.46-.12-24.68-.19-5.56,2.3-9.6,6.18-12.95a13.24,13.24,0,0,1,13.49-2.82c5,1.72,6.75,6,6.84,10.84.21,10.46.09,20.93.1,31.4h0c3.22.45,6.46.09,9.69.22,1.06,0,1.2-.55,1.18-1.41C552.68,111.45,553.6,100.2,552.41,89Z"/><path class="cls-1" d="M493.55,72.34h-1a11.65,11.65,0,0,1,1.44.49C493.88,72.64,493.9,72.33,493.55,72.34Z"/><path class="cls-1" d="M491.37,72.32c-1.44,0-2.87-.07-4.31-.06s-2.68.19-4,.25v7l-.15.07-.15,0a20.31,20.31,0,0,0-15.19-8.13l-3.48,0a27,27,0,0,0-19.89,12.26h0c-.35.74-.69,1.49-1.05,2.22-4.72,9.61-3,22.72,4,30.59C453,123.19,464.55,128,476,123l.74-.45,1.56-.94.2-.11a19.45,19.45,0,0,0,4.48-5.4l.11,0c0,2.55.08,4.45,0,6.33-.08,1.33.39,1.71,1.68,1.66a67.13,67.13,0,0,1,7,0c1.76.11,2.23-.5,2.21-2.22-.06-5.17.05-10.35.1-15.53,0-.12,0-.23,0-.35-.05-5.28-.17-10.57-.14-15.85,0-5.78-.26-11.56.17-17.33A15.34,15.34,0,0,0,491.37,72.32Zm-12.05,38.07c-5.76,6.37-15.94,6.82-22.75,1-3.71-3.18-5.52-7.49-5.62-15.82,0-4.55,2.89-10,9.39-12.94s12.71-2.4,18.1,2.46C485,91,485.3,103.76,479.32,110.39Z"/><path class="cls-1" d="M431.17,54.1c-1.49-1.67-5-.26-7.62-.57-2.3-.27-2.86.55-2.84,2.83.08,11,0,22.11-.08,33.16v.11l0,34.18a61.28,61.28,0,0,0,10.92.11q0-7.71.08-15.42V67.05l-.09-5.48C431.52,59,432.46,55.56,431.17,54.1Z"/><path class="cls-1" d="M411.71,95.52c-1.55-13.78-10.1-22.51-23.57-24.07h-4l-6.34,1.15-.73.3a28.94,28.94,0,0,0-13.32,10.34c-1.77,2.52-2.49,5.5-3.57,8.32v.08a4.1,4.1,0,0,1-.46,2.38,28.58,28.58,0,0,0,3.48,18.23,23.88,23.88,0,0,0,3,4.09l2.81,2.64a28.19,28.19,0,0,0,12.6,5.57,2,2,0,0,1,1.53.33l2,.18h3.47c6.69-.3,12.85-2.08,18-6.61h0l.81-.78.21-.2c.44-.93-.31-1.32-.83-1.81L402,111.11l-.2.14c-7.12,5.5-14.89,6-23,2.51-4.29-1.84-6.75-5.48-8-9.93-.39-1.35-.13-1.88,1.45-1.86,8.23.1,16.47.09,24.71.12h.22c4.15,0,8.31-.15,12.46,0,1.65,0,2.23-.52,2.12-2S411.71,97,411.71,95.52Zm-13.22-1.43c-8.55,0-17.11-.07-25.66.06-2.33,0-2.4-.68-1.71-2.54,2.52-6.8,9.41-11.54,16.15-11,7.75.63,13.41,5.74,14.65,13.27A9.9,9.9,0,0,1,398.49,94.09Z"/><path class="cls-1" d="M174.25,52.38q0-20.28,0-40.55c0-.67.05-1.34.09-2,0-.23,0-.46,0-.7A41.62,41.62,0,0,1,174.3,3c.32-2.48-.7-3.19-2.9-3-.12,0-.22,0-.34,0-2-.15-2.62.76-2.58,3,.16,11,.08,22.07.06,33.1,0,6.21-.07,12.41-.12,18.61v.79c0,.66.12,1.32.12,2q0,49,0,97.92c0,.66-.08,1.31-.12,2h0c0,8.45.12,16.9.12,25.34,0,7.37-.08,14.74-.12,22.11l0,.08c.2.47-.09,1.1.45,1.46,5.34-.15,5.33-.15,5.35-5.46q0-14.78.13-29.55v-2q-.07-15.78-.13-31.54c0-4,.08-7.94.13-11.91a9.8,9.8,0,0,1,0-3.5c0-5.22-.14-10.43-.13-15.65q0-18.39.13-36.79a19.38,19.38,0,0,1,0-5C174.33,60.82,174.26,56.6,174.25,52.38Z"/><path class="cls-1" d="M311.63,111.55l0-.55c-.05-.91-.16-1.82-.16-2.72,0-11.29,0-22.58,0-33.87,0-1.54-.29-2.27-2-2.16-2.4.15-4.82.09-7.22,0-1.2,0-1.6.36-1.55,1.56.08,1.83,0,3.67,0,6l-.09.05-.1,0c-3.29-5.08-7.84-7-12.79-8.38l-.41,0A27.19,27.19,0,0,0,264.69,80l-.31.3A25.73,25.73,0,0,0,258.22,95l0,5a21.36,21.36,0,0,0,.22,4.17c2.35,9.44,7.83,16.13,17.21,19.42a26.07,26.07,0,0,0,15.63.41l.35-.17c3.53-1.69,6.85-3.68,9.07-7.83,0,0,.05,0,.08.06V124c3.65,0,7.32.51,11-.28a5.4,5.4,0,0,1-.33.46c.22-.06.22-.31.33-.46A81.87,81.87,0,0,1,311.63,111.55ZM297,110.39c-5.79,6.44-16.11,6.81-22.93.83-3.58-3.14-5.32-7.41-5.43-15.83,0-4.29,2.83-9.67,9.16-12.67s12.69-2.57,18.15,2.21C302.64,90.79,303.07,103.63,297,110.39Z"/><path class="cls-1" d="M348,53.52a29.25,29.25,0,0,0-13.26,0l-.26.14c-1.55.87-3.3,1.31-4.71,2.57-3.12,2.8-4.11,6.44-4.61,10.35-.15,1.83.54,3.72-.4,5.49h0a2.12,2.12,0,0,1-1,.25,8.45,8.45,0,0,1-1.59,0h0a5.68,5.68,0,0,1-1.48,0,3.62,3.62,0,0,0-1.88.55h0a1.19,1.19,0,0,1,.13,1c0,.09-.06.19-.1.28a31,31,0,0,1,0,6.74,7.23,7.23,0,0,0,3.93.29,6.92,6.92,0,0,1,.78,0,1.57,1.57,0,0,1,1.37.66,3.29,3.29,0,0,1,.35,1.8c-.1,12.72,0,25.45-.1,38.17,0,2,.57,2.56,2.48,2.41a41.79,41.79,0,0,1,6.23,0c1.71.13,2-.53,2-2.1,0-6.35,0-12.69,0-19V102c0-6.07,0-12.14-.05-18.2,0-2.15.41-2.9,2.7-2.78,3.56.2,7.15,0,10.72,0a1,1,0,0,1,.09-.47V76a3.73,3.73,0,0,1-.07-1c.43-2.33-.6-2.87-2.81-2.82-3.37.08-6.76.38-10.12-.2h0c-1.5-4.71.32-9,4.31-10h0a8,8,0,0,1,6.52.27c2.57,1.28,3.31.24,4.31-1.88C353.83,55.19,353.72,55,348,53.52Z"/><polygon class="cls-1" points="324.73 72.05 324.73 72.05 324.73 72.05 324.73 72.05"/><path class="cls-1" d="M318.76,72.8a3.68,3.68,0,0,1,.6-.4A1.7,1.7,0,0,0,318.76,72.8Z"/><path class="cls-1" d="M240.32,88.48l-.6-.31-.4-.21c-4.52-2.23-9.23-4-13.91-5.87a34.06,34.06,0,0,1-4.5-2.1c-4.18-2.45-6-6.19-5-10.16.88-3.55,4.62-6.42,8.93-6.79a18.17,18.17,0,0,1,2.33.05h.15a7.24,7.24,0,0,1,4.14.59c3.2,1.28,6,3,7.77,6.23.53,1,1.13,2.91,3.07,1.84s3.92-2.39,5.93-3.48c.89-.48,1-.9.49-1.72a27.47,27.47,0,0,0-6.52-8c-6-4.81-12.89-6.17-20.38-5.09l-.21.06q-15.87,3.57-16.84,18v.07c0,6.28,2.68,11.17,7.56,15,6,3.44,12.62,5.64,19,8.32,3.38,1.41,6.62,3.23,7.92,7,2.45,7.16-2.55,13.29-10.93,13.48-7.16,1-13.9-3.49-16.48-9.28-.88-2-1.73-2.32-3.49-1.11a27.27,27.27,0,0,1-3.34,1.65c-3.07,1.55-3.26,2.63-1.32,5.66,6.93,10.79,16.8,14.67,29.25,12.61a5.08,5.08,0,0,1,.68,0h.06c.46-.16.92-.33,1.38-.47,6.38-1.92,11.67-5.27,14.54-11.55a34,34,0,0,0,1.53-4.93c.05-.15.09-.31.13-.46-.13-4.13-.61-8.15-3-11.74C246.26,92.64,243.3,90.56,240.32,88.48Z"/><path class="cls-2" d="M131,151c0-1.76-.63-3.47-.62-5.23,0-.26,0-.52.05-.79h0c-1.1-4.24-1.85-8.56-3.34-12.73-3.91-10.93-10.05-20.55-16.92-29.78-3.06-4.12-6.17-8.21-9.26-12.31h0a.49.49,0,0,0,0-.12l-.13,0a4.66,4.66,0,0,1-.61-.56c-7-8.93-13.83-18-20-27.57a3.56,3.56,0,0,0-3.45-1.83q-11.22.12-22.43,0a3.54,3.54,0,0,0-3.42,1.86c-2.25,3.48-4.61,6.91-7,10.28-6.22,8.7-12.74,17.17-19.46,25.49l-.34.43h0c-.82,1-1.64,2-2.44,3.07a127.84,127.84,0,0,0-16,26.44A68.12,68.12,0,0,0,.15,159.71c0,.24,0,.47,0,.71h0a15.61,15.61,0,0,1,.4,1.67,39.08,39.08,0,0,0,6.34,17.36c6.33,9.5,15.39,15.35,25.81,19.49,5.6,2.22,11.47,3.19,17.3,4.45l.47,0c7.47.6,14.95.55,22.44.41a75.23,75.23,0,0,0,31.94-7.7,57.25,57.25,0,0,0,17.53-13.73h0l.28-.42A41.29,41.29,0,0,0,130.11,165c.32-1.87.61-3.75.91-5.62h0Q131,155.2,131,151Zm-9.1,19.78a14.09,14.09,0,0,1-2.51,4.53c-5.77,9-14.29,14.41-24,18.08a59.57,59.57,0,0,1-20.38,4h0c-11.75.83-23.47.72-34.89-2.52-10.87-3.08-20.48-8.25-27.23-17.77a34.44,34.44,0,0,1-6.34-17.86c-1-14.13,3.12-27,10.1-39A102.27,102.27,0,0,1,27,105c3.31-5.09,7.29-9.68,11-14.48C43.56,83.25,49.08,76,54.13,68.35a3.67,3.67,0,0,1,3.67-1.89c2.4.15,4.81.09,7.22.11h0c3.41,0,7.13-.86,10.14.23s4.11,5,6.1,7.62c8.28,11,16.63,21.85,24.76,32.91,6.92,9.41,13.19,19.24,16.34,30.66C125.38,148.93,126.39,159.9,121.93,170.76Z"/><path class="cls-2" d="M39.72,16c5.53,7.07,7.87,15.37,9.33,24a2.1,2.1,0,0,0,2,1.18q14.28-.12,28.56-.16H80A63.85,63.85,0,0,1,87,19.3c2-3.73,5.21-6.66,6.62-10.73l0-2.42h0L92,4.54h0l-.63-.31L91,4,87,4.06h0a14.27,14.27,0,0,0-6.48,3.83,13.24,13.24,0,0,1-5.9,3.92c-2.35.64-4.67.8-6.38-1.31-.09-.12-.19-.24-.28-.38-1.21-1-2-2.51-3.5-3.11l-2.93,0h0c-1.85.41-2.64,2.14-3.89,3.27-3.49,3.14-6.51,3.66-10.47,1.31-1.79-1.07-3.64-2-5.49-2.9l-.16-.07h0c-4.12.35-5.19,2.6-2.85,6C39,15.1,39.36,15.57,39.72,16ZM63.78,15c4.93,4.76,10.38,4.39,16,1.44l1.72-.93c-.27,2.09-1.37,3.3-2,4.71a80.81,80.81,0,0,0-4.46,13.18,1.86,1.86,0,0,1-2.18,1.75q-8.34-.08-16.68,0c-1.19,0-1.84-.35-2.12-1.54a64.91,64.91,0,0,0-4.23-12.73c-.61-1.33-.19-1.47,1.09-1.41a14.2,14.2,0,0,0,10.6-4.12C62.26,14.7,62.72,13.93,63.78,15Z"/><path class="cls-2" d="M81.93,47.6q-15.47,0-31,0c-2.55,0-4,1.2-4,3.15.09,2.34,1.7,3.19,3.7,3.2q14.85.09,29.71,0c1.61,0,3.18-.43,3.65-2.37h0s0-.07,0-.11c.46-1.76-.55-2.73-1.77-3.59Z"/><path class="cls-2" d="M74.91,143.35c-2-.71-4.9-.11-5.75-2.13s-.18-4.4-.18-6.64a6.1,6.1,0,0,1,0-4.21h0c-.29-1.27,0-1.88,1.45-1.39,3.25,1.07,5,3.53,6.44,6.46s3.13,3.7,5.26,2.84c2-.8,2.67-3.07,1.77-5.78-.16-.47-.39-.91-.59-1.37-2.44-5.47-7-8.25-12.58-9.47-1.44-.31-1.91-.88-1.88-2.3a61.54,61.54,0,0,0-.2-6.22c-.15-1.93-1.26-3.13-3.24-3s-2.82,1.54-2.87,3.42-.08,3.66,0,5.48c.07,1.47-.28,2.29-2,2.48a16.23,16.23,0,0,0-7.66,3.36c-6.67,4.78-7.26,17,2.56,20.58,1.79.66,3.63,1.18,5.45,1.72.94.28,1.63.57,1.61,1.8-.07,4.07,0,8.14,0,12.21,0,1.07-.38,1.25-1.36.93a9.74,9.74,0,0,1-6.27-5.29c-.91-2-1.92-3.93-4.36-4.42h0l-.4.07c-3.06.61-4,2.66-2.71,6.13a15.72,15.72,0,0,0,12,10.22c2.77.59,3.54,1.78,3.16,4.29a16.8,16.8,0,0,0,0,1.74,3.68,3.68,0,0,0,2.35,4l.15.07c3.24-.54,4-1.47,3.79-6-.11-2.53.55-3.64,3.17-4.1,4.27-.75,8.07-2.7,10.46-6.53C86.91,155.21,83.28,146.38,74.91,143.35Zm-6.25,18.19v-5.46c0-1.74,0-3.47,0-5.21,0-1,.36-1.49,1.48-1.37,3.22.34,6.33,3.55,6.36,6.65s-3.14,6.4-6.57,6.7C68.83,162.94,68.66,162.38,68.66,161.54ZM60,139.17c-2.88-1.17-4.49-3-4.38-5.13.13-2.4,2.82-5.22,5.46-5.85,1.2-.29,1.46.21,1.44,1.25,0,1.57,0,3.14,0,4.72,0,1.07,0,2.15,0,3.22C62.51,140.12,62.45,140.16,60,139.17Z"/><path class="cls-3" d="M585.6,149.43c-.69-.3-1.38-.58-2-.93a1.23,1.23,0,0,1-.54-1.71,1.32,1.32,0,0,1,1.67-.72,6.71,6.71,0,0,1,1.48.86.68.68,0,0,0,.9,0c.42-.37.26-.75,0-1.08a3.51,3.51,0,0,0-3.56-1.28,2.72,2.72,0,0,0-.67,5.25c.43.24.92.38,1.37.58.84.36,1.77.67,1.92,1.74a1.32,1.32,0,0,1-.82,1.39,2,2,0,0,1-2.68-.56c-.91-1-1.52-1-1.73.49.07.11.15.2.22.3a8.88,8.88,0,0,0,2.26,1.52l.1.06c.57-.07,1.15-.09,1.71-.21a3,3,0,0,0,2.7-2.54C588.09,150.9,587,150,585.6,149.43Z"/><polygon class="cls-3" points="446.58 144.95 446.58 144.95 446.58 144.95 446.58 144.95"/><path class="cls-3" d="M446.58,145v6.11a32.26,32.26,0,0,1-4.76-5.07c-.4-.5-.84-1.14-1.62-.93s-.57,1.08-.59,1.68c-.06,2.57-.07,5.14-.1,7.71h0a.8.8,0,0,1,0,.15,1.8,1.8,0,0,1,.06.32,2.47,2.47,0,0,0,.44.05h.11c.81,0,1-.66,1-1.59,0-1.33,0-2.67,0-4v-.24c0-1,.37-.91.74-.29a1.29,1.29,0,0,0,.09.16h0l4.61,5.82c1.29.36,1.58-.32,1.57-1.43q0-3.46,0-6.93C448.18,145.34,447.84,144.69,446.58,145Z"/><path class="cls-3" d="M467.88,149.61c-.49,0-1.05.15-1,.81s.54.49.93.58,1.35-.27,1.43.54a1.76,1.76,0,0,1-1.29,1.67c-1.81.68-3.48.42-4.57-1.32a3.3,3.3,0,0,1,.11-4.16c1.15-1.36,2.52-2.14,4.37-1.34.51.22,1.14.62,1.46-.2s-.53-.88-1-1.12c-1.66-.92-3.24-.24-4.83.21l-.44.12c-3.51,3.3-2.84,7.51,1.53,9.61l2.92.06h0c1.08-.18,1.64-1.17,2.54-1.62l.28-.55c.52-.93,1.12-1.89.38-2.88S468.86,149.59,467.88,149.61Z"/><path class="cls-3" d="M357.25,149.44c1.38-1.69.07-4-2.18-4.46-1.37-.28-2.78-.34-4.18-.5-.58,3-.14,6.11-.27,9.16-.05,1.14.56,1.45,1.57,1.27h0c.25-1.12-.74-2.76.65-3.3,1.78-.68,2.14,1.32,3,2.3a3.19,3.19,0,0,1,.39.88c.66.12,1.38.54,1.87-.33h0C356.6,153,355.39,151.74,357.25,149.44Zm-3.5.56c-1.39.11-1.74-.62-1.54-1.69-.13-1.27.13-2.05,1.54-2s2.36.45,2.29,1.92C356,149.56,354.91,149.9,353.75,150Z"/><path class="cls-3" d="M372,144.5v0c-2.27.57-1,2.37-1.27,3.64a.92.92,0,0,1-.11.33c0,2.15.05,4.29.07,6.44,1,.2,1.63-.09,1.59-1.24,0-.14,0-.27,0-.41s0-.54,0-.81C372.24,149.78,372.51,147.13,372,144.5Z"/><path class="cls-3" d="M302.19,149.45c1.25-1.3.46-3.09-1-4.08-1.18-.8-2.69-.71-4.1-.79s-1.79.55-1.76,1.81c0,2.33,0,4.66,0,7,0,.63-.12,1.45.84,1.53s.9-.72,1-1.38-.42-1.78.85-2,1.5.77,2.07,1.45.9,2.31,2.86,1.86a6.9,6.9,0,0,0-.53-1C301.33,152.43,300.44,151.28,302.19,149.45Zm-3.34.53c-1.32.13-1.81-.47-1.65-1.67-.07-1.12,0-2,1.48-2,1.21,0,2.16.4,2.23,1.73S300,149.86,298.85,150Z"/><path class="cls-3" d="M279.31,146.36c.58,0,1.16,0,1.74,0s1.47,0,1.45-.94c0-.76-.73-.84-1.31-.81-1.64.06-3.32-.34-4.91.37v.48c0,3.15,0,6.31,0,9.46l.07,0v0a19.56,19.56,0,0,0,3.15.08c1-.12,2.93.71,3-.69s-1.85-.57-2.87-.78c-.72-.15-1.58.06-1.65-1-.05-.66-.17-1.45.57-1.75a7.29,7.29,0,0,1,2-.22c.51,0,1.06-.1,1-.8-.06-.47-.46-.66-.91-.68a10.21,10.21,0,0,0-1.24,0c-.92,0-1.38-.35-1.37-1.31S278.4,146.34,279.31,146.36Z"/><path class="cls-3" d="M543,144.55a5.35,5.35,0,0,0-5.12,5.35,4.89,4.89,0,0,0,5.18,5.15,5.11,5.11,0,0,0,5.34-5.07A5.52,5.52,0,0,0,543,144.55Zm0,9a3.72,3.72,0,0,1,.16-7.44,4,4,0,0,1,3.56,3.85A3.69,3.69,0,0,1,543,153.52Z"/><path class="cls-3" d="M566.57,145.12c-3.61-1.76-5.52-.57-5.52,3.37v1.24h0c0,1.32,0,2.64,0,4,0,.6.1,1.21.9,1.22s1-.57.91-1.17c-.28-1.93.67-2.34,2.4-2.38a3.13,3.13,0,0,0,3.07-2.75A3.08,3.08,0,0,0,566.57,145.12Zm-2.3,4.87c-1.58,0-1.3-1.09-1.35-2-.08-1.35.61-1.76,1.51-1.59,1.44.09,2.33.6,2.27,1.78C566.63,149.54,565.58,150,564.27,150Z"/><path class="cls-3" d="M502.33,148.73c-.79-.3-1.55-.92-1.05-1.89a1.59,1.59,0,0,1,2.14-.67,4.92,4.92,0,0,1,.87.48c.43.28,1,.55,1.32.09.49-.63-.15-1.07-.56-1.4-1.68-1.33-3.37-1-5,.08l-.08.18a4.38,4.38,0,0,0-.29.81,6.64,6.64,0,0,0-.19,1.55,5.14,5.14,0,0,0,3,2.4c.94.34,1.9.7,2,1.89a1.28,1.28,0,0,1-.89,1.34,2.23,2.23,0,0,1-2.68-.63c-.42-.41-.82-1-1.39-.37s0,1.07.39,1.49c1.58,1.85,4.08,1.58,6.21-.63h0l.08-.24.14-.39.13-.37C506.09,150.1,504.2,149.46,502.33,148.73Z"/><path class="cls-3" d="M524.34,144.61c-1.57,0-3.15-.05-4.72,0-.58,0-1.26,0-1.35.79s.55,1,1.14,1c1.42,0,1.62.79,1.57,1.93a11.86,11.86,0,0,0,0,2.73c.22,1.29-.73,3.71.66,3.66,1.84-.07.42-2.44.91-3.72.43-1.76-1.37-4.61,2.32-4.84.15,0,.39-.54.37-.79A.87.87,0,0,0,524.34,144.61Z"/><path class="cls-3" d="M391,145.33a11.13,11.13,0,0,0-3.11-.72c-2-.38-3,.21-2.7,2.44a21.14,21.14,0,0,1,0,3c0,1.16,0,2.32,0,3.48,0,.67-.36,1.71.74,1.8s1.15-.87,1.07-1.61c-.2-1.73.51-2.3,2.21-2.34a3.25,3.25,0,0,0,3.24-2.63A3,3,0,0,0,391,145.33ZM388.48,150c-1.37.07-1.43-.81-1.38-1.86-.13-1.15.25-1.85,1.63-1.77s2.15.59,2.07,1.93S389.66,149.93,388.48,150Z"/><path class="cls-3" d="M318.94,153.53c-.92-.17-1.61-.25-1.58-1.4,0-1,.32-1.55,1.41-1.62.67,0,1.8.36,1.85-.66.06-1.29-1.19-.78-1.9-.84-.92-.07-1.37-.4-1.36-1.35s.54-1.2,1.41-1.34c1.08-.17,3.09.74,3-.95-.07-1.44-2.08-.56-3.21-.79-.24-.05-.5,0-.75,0-1.64-.21-2.17.52-2.1,2.13.1,2.73,0,5.47,0,8.2h6.48C322,152.44,320.1,153.74,318.94,153.53Z"/><path class="cls-3" d="M262.62,145c-1.25-.07-.87,1.23-.8,1.92.19,1.92-.66,2.37-2.45,2.41-2,0-2.7-.69-2.51-2.61.06-.65.3-1.77-.79-1.74s-.72,1.13-.73,1.8c-.05,2.16,0,4.31,0,6.47,0,.61-.23,1.53.72,1.56s.88-.89.8-1.49c-.29-2.19.79-2.54,2.73-2.61,2.38-.08,2.25,1.27,2.21,2.84,0,.55-.07,1.29.77,1.28s.75-.74.76-1.3c0-1.16,0-2.32,0-3.48,0-1,.06-2,0-3C263.26,146.36,263.75,145.11,262.62,145Z"/><path class="cls-3" d="M242,144.74c-.87-.19-1,.6-1.25,1.24-.53,1.62-1.09,3.23-1.63,4.84a16.64,16.64,0,0,1-2.24-4.51c-.23-.61-.33-1.41-1.13-1.48-1-.09-1,.94-1.28,1.57-.63,1.53-1.15,3.1-1.93,5.26-.81-2.38-1.38-4.1-2-5.82-.19-.54-.42-1.25-1.15-1.05-1,.27-.51,1.05-.33,1.63.76,2.45,1.56,4.9,2.36,7.35.18.55.36,1.18,1.11,1.13.6,0,.72-.59.89-1.06.67-1.85,1.36-3.69,2.24-6.08l2.13,5.83c.2.54.29,1.21,1,1.26s.88-.61,1.06-1.16c.81-2.45,1.65-4.88,2.41-7.34C242.43,145.83,243.07,145,242,144.74Z"/><path class="cls-3" d="M409.56,145c-.89-.15-1.79-.28-2.68-.37-1.24-.14-1.79.37-1.75,1.68.05,2.06,0,4.12-.06,6.18h0v.15l.06,1.79,0,.54h0a2.31,2.31,0,0,0,.63,0,.92.92,0,0,0,.67-.33,1.55,1.55,0,0,0,.27-1c0-.7-.28-1.49.4-2.08a18.24,18.24,0,0,0,2.67-.36,2.93,2.93,0,0,0,2.44-3.23A3,3,0,0,0,409.56,145Zm-2.85,3.37c0-1.18-.08-2.33,1.44-2.16,1.14.13,2.43.25,2.48,1.86s-1.09,1.84-2.32,2C406.9,150.15,406.6,149.34,406.71,148.33Z"/><path class="cls-3" d="M425.06,146.46c0,2.31,0,4.62,0,6.92,0,1.11.29,1.77,1.54,1.56v-.07c0-3.29,0-6.58,0-9.86V145C425.34,144.67,425.05,145.37,425.06,146.46Z"/></svg>